<svg xmlns="http://www.w3.org/2000/svg" viewBox="0 0 115.7 30"><style>.st2{fill:#fd4e26}.st3{fill:#08469c}.st4{fill:#159ce4}.st5{fill:#f9bc35}</style><g id="Logo"><path class="st2" d="M0 15v12.4C0 28.9 1.2 30 2.7 30H15V15H0z" id="Составная_фигура"/><path class="st3" d="M15 15v15h12.4c1.4 0 2.6-1.2 2.6-2.6V15H15z" id="Составная_фигура-2"/><path class="st4" d="M27.3 0H15v15h15V2.7C30 1.2 28.8 0 27.3 0z" id="Составная_фигура-3"/><path class="st5" d="M2.6 0C1.1 0 0 1.2 0 2.6V15h15V0H2.6z" id="Составная_фигура-4"/><circle class="st3" cx="14.5" cy="22.5" r="3.5" id="Ellipse_1"/><circle class="st2" cx="7.5" cy="14.5" r="3.5" id="Ellipse_1_copy"/><circle class="st5" cx="15.5" cy="7.5" r="3.5" id="Ellipse_1_copy_2"/><circle class="st4" cx="22.5" cy="15.5" r="3.5" id="Ellipse_1_copy_3"/></g><path d="M43.8 9.1c.8 0 1.6.2 2.4.5s1.4.7 1.9 1.3c.6.5 1 1.2 1.3 1.9.3.7.5 1.5.5 2.4 0 .8-.1 1.5-.4 2.2-.3.7-.6 1.3-1.1 1.8-.4.5-1 1-1.6 1.3-.6.3-1.2.6-1.9.7-.7.1-1.4.1-2.1 0-.7-.1-1.4-.4-2.1-.7v3h-3v-8.2c0-.8.2-1.6.5-2.4s.7-1.4 1.3-1.9c.6-.5 1.2-1 1.9-1.3s1.6-.6 2.4-.6zm3 6.1c0-.4-.1-.8-.2-1.2-.2-.4-.4-.7-.6-1-.3-.3-.6-.5-1-.6-.4-.2-.8-.2-1.2-.2-.4 0-.8.1-1.2.2-.4.2-.7.4-1 .6-.3.3-.5.6-.6 1-.2.4-.2.8-.2 1.2 0 .4.1.8.2 1.2.2.4.4.7.6 1 .3.3.6.5 1 .6.4.2.8.2 1.2.2.4 0 .8-.1 1.2-.2.4-.2.7-.4 1-.6.3-.3.5-.6.6-1 .2-.4.2-.8.2-1.2zm16.1-6.1v6.1c0 .8-.2 1.6-.5 2.4-.3.7-.7 1.4-1.3 1.9-.6.5-1.2 1-1.9 1.3-.7.3-1.5.5-2.4.5s-1.6-.2-2.4-.5c-.7-.3-1.4-.7-1.9-1.3-.6-.5-1-1.2-1.3-1.9s-.5-1.5-.5-2.4V9.1h3v6.2c0 .4.1.8.2 1.2.2.4.4.7.6 1s.6.5 1 .6c.4.2.8.2 1.2.2.4 0 .8-.1 1.2-.2.4-.2.7-.4 1-.6.3-.3.5-.6.6-1 .2-.4.2-.8.2-1.2V9.1h3.2zm13 12.2h-12l6.2-9.1h-6.2v-3h11.9l-6.2 9.1h6.2v3zm12.9 0H76.9l6.2-9.1h-6.2v-3h11.9l-6.2 9.1h6.2v3zm4.3 0h-3V6.1h3v15.2zm13.3-6.1v.5c0 .2 0 .4-.1.5h-8.8c.2.5.5 1 .9 1.3.4.3.9.5 1.4.6.5.1 1 .1 1.5-.1s.9-.4 1.3-.9h3.5c-.4 1.2-1 2.1-1.8 2.7-.8.6-1.7 1-2.6 1.2-.9.2-1.9.2-2.8-.1s-1.8-.7-2.5-1.3-1.3-1.4-1.7-2.3c-.4-.9-.5-2-.3-3.2.2-1.2.6-2.2 1.3-3 .7-.8 1.5-1.3 2.4-1.7.9-.3 1.8-.5 2.8-.4 1 .1 1.9.4 2.7.8.8.5 1.5 1.2 2 2 .5 1.1.8 2.2.8 3.4zm-8.4-2h4.6c-.3-.4-.7-.6-1.1-.8-.4-.2-.8-.3-1.2-.3s-.8.1-1.2.3c-.4.2-.8.5-1.1.8zm9.4 8.1V9.1h3v1.1c.5-.3.9-.5 1.5-.6.5-.1 1.1-.2 1.6-.2h1.7v3h-1.7c-.4 0-.8.1-1.2.2-.4.2-.7.4-1 .6-.3.3-.5.6-.6 1s-.2.8-.2 1.2v5.8h-3.1z" fill="#fff" id="Txt"/></svg>