<svg xmlns="http://www.w3.org/2000/svg" viewBox="0 0 960 315.93"><path d="M822.8 155.57h-144a20 20 0 0 0-20 20V307.5c0 1.75 1.37 5 3.62 5h176.76c2.25 0 3.63-3.22 3.63-5V175.58a20 20 0 0 0-20.01-20.01zm17.51 151.93a3.73 3.73 0 0 1-1.13 2.47H662.47a3.65 3.65 0 0 1-1.15-2.47V175.58a17.52 17.52 0 0 1 17.5-17.51h144a17.52 17.52 0 0 1 17.51 17.51z" fill="#fff" fill-rule="evenodd" data-name="Составная фигура"/><path d="M279.8 155.57h-144a20 20 0 0 0-20 20V307.5c0 1.75 1.37 5 3.62 5h176.76c2.25 0 3.63-3.22 3.63-5V175.58a20 20 0 0 0-20.01-20.01zm17.51 151.93a3.73 3.73 0 0 1-1.13 2.47H119.47a3.65 3.65 0 0 1-1.15-2.47V175.58a17.52 17.52 0 0 1 17.5-17.51h144a17.52 17.52 0 0 1 17.51 17.51z" fill="#fff" fill-rule="evenodd" data-name="Составная фигура copy"/><path fill="#121214" d="M700.17 113.97h46.29v39.64h-46.29z" data-name="Составная фигура"/><path d="M699.07 112.87v41.83h48.48v-41.83zm46.29 39.64h-44.1v-37.45h44.1z" fill="#fff" fill-rule="evenodd" data-name="Составная фигура"/><path d="M419.42 260.66h-23.81a1.1 1.1 0 1 0 0 2.19h23.81a4.77 4.77 0 0 1 0 9.53h-23.81a1.1 1.1 0 1 0 0 2.19h23.81a7 7 0 0 0 0-13.91z" fill="#5b141a" fill-rule="evenodd" data-name="Составная фигура"/><path d="M759.01 73.93v-27.5c-5.94-24.67-21.39-39.85-52.5-39.5-3.39 2.53-9.69 2.11-13.5 4a50.1 50.1 0 0 0-25 28c-3.46 9.45-2 24.64-2 37 0 35.13.7 48.27 25 60 5.24 2.53 15.91 6.18 25 4 21.87-5.25 35.78-14.41 42-35 2.5-8.26 1-21.09 1-31z" fill="#121214" fill-rule="evenodd"/><path d="M760.32 60.2v-6.49A47.73 47.73 0 0 0 712.6 5.93a47.79 47.79 0 0 0-47.72 47.76v44.78a42.17 42.17 0 0 0 42.13 42.16h5.61a47.75 47.75 0 0 0 47.73-47.78V60.33a.53.53 0 0 0-.03-.13zm-2.19 32.65a45.55 45.55 0 0 1-45.54 45.59h-5.58a40 40 0 0 1-39.91-39.95V53.71a45.61 45.61 0 0 1 45.5-45.58 45.55 45.55 0 0 1 45.53 45.58v10.67z" fill="#fff" fill-rule="evenodd" data-name="Составная фигура"/><path d="M411.87 272.38h-23.86a1.1 1.1 0 0 0 0 2.19h23.82a4.77 4.77 0 0 1 0 9.54h-23.82a1.1 1.1 0 0 0 0 2.19h23.82a7 7 0 0 0 0-13.92z" fill="#5b141a" fill-rule="evenodd" data-name="Составная фигура"/><path d="M411.16 283.87h-23.82a1.1 1.1 0 0 0 0 2.19h23.82a4.77 4.77 0 0 1 0 9.53h-23.82a1.1 1.1 0 0 0 0 2.19h23.82a7 7 0 0 0 0-13.91z" fill="#5b141a" fill-rule="evenodd" data-name="Составная фигура"/><path d="M408.32 261.76l-35.31 6.07-68.39.86a23 23 0 0 1-3.91-.33 22.22 22.22 0 0 1-16.7-13.3l-28.16-72.83-34.47 2.76 40.57 85.06c4.34 13.09 15.55 26.87 31.91 26.87h115.6c-1.31-2-9.66-12.29-12.48-23.45-1.86-7.38 18.96-11.71 11.34-11.71z" fill="#121214" fill-rule="evenodd" data-name="Составная фигура"/><path d="M410.37 296.33c-.19-.29-.52-.75-1-1.35-2.46-3.39-9-12.38-11.37-21.77-.9-3.58 5.91-6.78 9.58-8.5 2.7-1.26 3.71-1.74 3.45-2.91s-1.64-1.14-2.75-1.14l-35.45 6.08-68.29.86a21.46 21.46 0 0 1-3.72-.32 21 21 0 0 1-15.8-12.62l-28.48-73.59-36.87 3 41.23 86.44a46 46 0 0 0 11.71 18.73 30.63 30.63 0 0 0 21.21 8.83h117.67zm-116.51-.5c-10.24 0-24.47-6.84-30.87-26.12l-39.98-83.78 32.08-2.57 27.9 72.1a23.34 23.34 0 0 0 21.57 14.31l68.45-.84 32.33-5.53c-4.53 2.17-10.6 5.53-9.39 10.35 2.38 9.42 8.68 18.32 11.41 22.09z" fill="#fff" fill-rule="evenodd" data-name="Составная фигура"/><path d="M739.15 163.06a16.82 16.82 0 0 0-21.49-10.19l-204.53 73.06a16.83 16.83 0 1 0 11.3 31.7l204.53-73a16.84 16.84 0 0 0 10.19-21.57z" fill="#121214" fill-rule="evenodd" data-name="Составная фигура"/><path d="M740.18 162.7a17.9 17.9 0 0 0-22.89-10.86l-204.53 73a17.92 17.92 0 1 0 12 33.76l204.53-73a18 18 0 0 0 10.89-22.9zm-11.59 20.84l-204.53 73a15.73 15.73 0 0 1-10.56-29.61l204.51-73a15.71 15.71 0 0 1 20.09 9.53 15.76 15.76 0 0 1-9.51 20.08zm-37.94-85.1a6 6 0 0 1-5.95-5.95V76.66a1.1 1.1 0 0 0-2.19 0v15.83a8.15 8.15 0 0 0 8.14 8.14 1.1 1.1 0 0 0 0-2.19z" fill="#fff" fill-rule="evenodd" data-name="Составная фигура"/><rect x="369.23" y="233.53" width="48.42" height="10.09" rx="1.36" ry="1.36" fill="#121214" data-name="Составная фигура"/><path d="M416.29 232.43H370.6a2.46 2.46 0 0 0-2.46 2.46v7.37a2.46 2.46 0 0 0 2.46 2.45h45.69a2.46 2.46 0 0 0 2.46-2.45v-7.33a2.46 2.46 0 0 0-2.46-2.5zm.27 9.83a.27.27 0 0 1-.27.26H370.6a.27.27 0 0 1-.27-.26v-7.33a.27.27 0 0 1 .27-.27h45.69a.27.27 0 0 1 .27.27z" fill="#fff" fill-rule="evenodd" data-name="Составная фигура"/><path d="M372.76 243.62l4.05 51.11a3.1 3.1 0 0 0 3.08 2.85h27.25a3.1 3.1 0 0 0 3.08-2.86l3.91-51.1z" fill="#121214" fill-rule="evenodd" data-name="Составная фигура"/><path d="M371.58 242.52l4.14 52.3a4.21 4.21 0 0 0 4.17 3.85h27.25a4.21 4.21 0 0 0 4.17-3.87l4-52.28zm37.55 52.11a2 2 0 0 1-2 1.85h-27.24a2 2 0 0 1-2-1.84l-3.95-49.93h39z" fill="#fff" fill-rule="evenodd" data-name="Составная фигура"/><path d="M406.01 223.62l-26.3 3.17a4.54 4.54 0 0 0-4 4.5v2.24h35.35v-5.41a4.53 4.53 0 0 0-5.05-4.5z" fill="#121214" fill-rule="evenodd" data-name="Составная фигура"/><path d="M410.32 223.93a5.6 5.6 0 0 0-4.4-1.37l-26.3 3.17a5.63 5.63 0 0 0-4.95 5.58v3.33h37.55v-6.5a5.62 5.62 0 0 0-1.9-4.21zm-.31 8.5h-33.15v-1.14a3.44 3.44 0 0 1 3-3.41l26.29-3.17a3.44 3.44 0 0 1 3.85 3.41z" fill="#fff" fill-rule="evenodd" data-name="Составная фигура"/><path d="M729.42 6.78H654.2v11.61a30 30 0 0 0 30 30h12.23a15 15 0 0 0 13.8-9.16 9.26 9.26 0 0 1 8.49-5.82h.67a16.93 16.93 0 0 1 16.88 16.93v17a18.9 18.9 0 0 0 18.9 18.91h14.84V47.38a40.58 40.58 0 0 0-40.59-40.6z" fill="#121214" fill-rule="evenodd" data-name="Составная фигура"/><path d="M729.42 5.68H653.1v12.08a31.76 31.76 0 0 0 31.71 31.73h11.59a16 16 0 0 0 14.81-9.83 8.19 8.19 0 0 1 7.46-5.15h.69a15.86 15.86 0 0 1 15.79 15.84v17a20 20 0 0 0 20 20h15.94v-40a41.73 41.73 0 0 0-41.67-41.67zm39.47 79.5h-13.75a17.82 17.82 0 0 1-17.8-17.82v-17a18 18 0 0 0-18-18h-.7a10.37 10.37 0 0 0-9.47 6.49 13.87 13.87 0 0 1-12.8 8.49h-11.56a29.56 29.56 0 0 1-29.52-29.54V7.87h74.13a39.53 39.53 0 0 1 39.47 39.51z" fill="#fff" fill-rule="evenodd" data-name="Составная фигура"/><path d="M759.01 74.43c-1.4.93-3.45.62-5 1.5-3 1.7-3.51 5.21-5.5 8 .31 5.65 4.11 9.19 6.5 13 11.69 2.84 11.73-1.92 17-8 .26-9.34-4.35-14.15-13-14.5z" fill="#121214" fill-rule="evenodd" data-name="new_vector_shape_done"/><path d="M760.17 73.52a12.76 12.76 0 0 0-12.75 12.75 1.1 1.1 0 1 0 2.19 0 10.55 10.55 0 1 1 5.33 9.19 1.1 1.1 0 0 0-1.09 1.9 12.75 12.75 0 1 0 6.32-23.84z" fill="#fff" fill-rule="evenodd" data-name="Составная фигура"/><path d="M760.17 80.44a1.09 1.09 0 1 0 0 2.18 3.65 3.65 0 0 1 3.64 3.65 1.1 1.1 0 1 0 2.19 0 5.84 5.84 0 0 0-5.83-5.83zm-60.28 29.75a1.08 1.08 0 0 0-1.53.19 9.75 9.75 0 0 1-15.41 0 1.094 1.094 0 0 0-1.73 1.34 11.94 11.94 0 0 0 18.86 0 1.08 1.08 0 0 0-.19-1.53z" fill="#fff" fill-rule="evenodd" data-name="Составная фигура"/><path d="M255.17 5.42c-27.29 0-47.34 11.85-54.6 38l-13.56 72.09c-8.57 36.1 24 67 61 67l20.64-10.49a64.36 64.36 0 0 0 35.15-57.32V56.41a7.54 7.54 0 0 0 .64-3.24 49.44 49.44 0 0 0-49.27-47.75z" fill="#121214" fill-rule="evenodd" data-name="Составная фигура"/><path d="M255.17 4.33c-29.36 0-48.61 13.41-55.68 38.89l-13.51 72c-3.67 15.45-.1 31 10 43.86 12.13 15.35 31.6 24.51 52.08 24.51h.27l20.86-10.62a65.13 65.13 0 0 0 35.82-58.25V56.65a8.59 8.59 0 0 0 .64-3.49 50.3 50.3 0 0 0-50.48-48.83zM302.91 56l-.09.21v58.51a63 63 0 0 1-34.55 56.34l-20.4 10.38c-19.72-.08-38.44-8.91-50.11-23.67-9.71-12.3-13.13-27.22-9.61-42.06l13.5-72C208.41 19.37 226.93 6.5 255.2 6.5a48.14 48.14 0 0 1 48.3 46.72 6.42 6.42 0 0 1-.59 2.78z" fill="#fff" fill-rule="evenodd" data-name="Составная фигура"/><path d="M789.01 290.43c-2.65-10-3.43-20.22-6-29.5-1.79-6.47-1.22-12-3-18.5-5.41-19.71-7.74-41.67-13-61.5-1.23-4.63-.67-8.4-2-13-3-10.28-11.6-21.79-24-22.5-1.31.83-3.56.06-5.5.5-5.83 1.33-13.67 1.65-19.5 3-3.12.72-6.25-.37-8.5 1-6.7 0-7.24 4.21-9.5 8.5-2.88 5.47-5.08 12.42-7 19-.33 3.17-.67 6.33-1 9.5-3.73 15.61.68 34 4 46.5 3.21 12.08 3.8 24.59 7 36s2.35 26.93 7.5 36.5c5.31.21 10 1.84 14.5 3 5.82 1.5 11.74 1.69 17 3s10.46 1 15 2h6.5c11.39 2.65 23.35.75 30.5-4 .66-6.64-1.42-13.53-3-19.5z" fill="#121214" fill-rule="evenodd" data-name="new_vector_shape_done"/><path d="M793.42 305.63l-27.31-136.07a32.31 32.31 0 0 0-23-25.19 1.093 1.093 0 1 0-.61 2.1 30.19 30.19 0 0 1 21.51 23.51l27.31 136.08a4 4 0 0 1-1.14 4c-3.14 3.05-13.5 5.72-45.07 1.19-17-2.43-33-6-36.5-6.79l-17.84-92.3c-3.88-28.78 7.64-57.72 13.74-61.07a1.1 1.1 0 0 0 .43-1.49 1.09 1.09 0 0 0-1.48-.43c-8.2 4.51-18.54 36-14.85 63.35l18 93.06.14.69.69.17c.18 0 18.18 4.22 37.37 7a204 204 0 0 0 27.94 2.41c9.73 0 16.08-1.4 19-4.19a6.16 6.16 0 0 0 1.67-6.03z" fill="#fff" fill-rule="evenodd" data-name="Составная фигура"/><rect x="538.25" y="233.53" width="48.42" height="10.09" rx="1.36" ry="1.36" fill="#121214" data-name="Составная фигура"/><path d="M585.31 232.43h-45.7a2.46 2.46 0 0 0-2.45 2.46v7.37a2.45 2.45 0 0 0 2.45 2.45h45.7a2.46 2.46 0 0 0 2.46-2.45v-7.33a2.47 2.47 0 0 0-2.46-2.5zm.27 9.83a.27.27 0 0 1-.27.26h-45.7a.26.26 0 0 1-.26-.26v-7.33a.27.27 0 0 1 .26-.27h45.7a.27.27 0 0 1 .27.27z" fill="#fff" fill-rule="evenodd" data-name="Составная фигура"/><path d="M541.78 243.62l3.91 51.1a3.1 3.1 0 0 0 3.08 2.86h27.24a3.1 3.1 0 0 0 3.08-2.85l4-51.11zm34.37-16.83l-26.29-3.17a4.54 4.54 0 0 0-5.08 4.5v5.41h35.36v-2.24a4.54 4.54 0 0 0-3.99-4.5z" fill="#121214" fill-rule="evenodd" data-name="Составная фигура"/><path d="M576.28 225.71l-26.27-3.17a5.63 5.63 0 0 0-6.3 5.58v6.5h37.54v-3.33a5.62 5.62 0 0 0-4.97-5.58zm2.73 6.72h-33.13v-4.31a3.44 3.44 0 0 1 3.84-3.41l26.29 3.22a3.44 3.44 0 0 1 3 3.41zm-38.41 10.09l4 52.28a4.2 4.2 0 0 0 4.17 3.87h27.24a4.21 4.21 0 0 0 4.17-3.86l4.14-52.29zm37.41 52.12a2 2 0 0 1-2 1.84h-27.24a2 2 0 0 1-2-1.84l-3.76-49.93h39z" fill="#fff" fill-rule="evenodd" data-name="Составная фигура"/><path d="M559.51 261.76c-7.61 0 13.21 4.33 11.34 11.71-2.84 11.16-23.17 23.46-12.47 23.46h45v-35z" fill="#121214" fill-rule="evenodd" data-name="Составная фигура"/><path d="M559.51 260.66c-1.11 0-2.49 0-2.74 1.14s.75 1.65 3.45 2.91c3.66 1.72 10.47 4.92 9.57 8.5-1.22 4.81-6 10-9.93 14.2s-6.38 6.89-5.48 9c.64 1.47 2.58 1.64 4 1.65h46.11v-37.25zm42.79 35.17h-43.92c-1.65 0-2-.32-2-.32-.21-.9 3-4.33 5.08-6.61 4-4.37 9.09-9.8 10.44-15.16s-5.94-8.74-10.5-10.88l40.89.13z" fill="#fff" fill-rule="evenodd" data-name="Составная фигура"/><path d="M579.01 261.93h-26c-5.14 6.41-4.12 7 1.5 12 7.31 0 18.25 1.59 24.5-.5.32-.86.1-.49.5-1 .04-3.38.37-7.94-.5-10.5z" fill="#121214" data-name="new_vector_shape_done"/><path d="M579.28 272.38h-23.82a4.77 4.77 0 0 1 0-9.53h23.82a1.1 1.1 0 0 0 0-2.19h-23.82a7 7 0 0 0 0 13.91h23.82a1.1 1.1 0 0 0 0-2.19z" fill="#fff" fill-rule="evenodd" data-name="Составная фигура"/><path d="M700.75 156.32c.93-7.35-5.17 7.81-6.32 10.68-4.37 10.91-8 24.2-5.15 42.37s5.64 30.21 5.64 30.21l10.58-30.6s-6.64-37.59-4.75-52.66z" fill="#00ffc4" fill-rule="evenodd" data-name="Составная фигура"/><path d="M706.58 208.79c-.07-.37-6.6-37.6-4.74-52.33.14-1.14.36-2.85-.93-3.18-1.06-.28-2-.51-7.5 13.31-4 10-8.18 23.87-5.21 43 2.81 18 5.63 30.16 5.65 30.28l.86 3.7 11.92-34.45zm-11.42 26.75c-1-4.91-2.92-14.31-4.8-26.33-2.87-18.45 1-31.49 5.08-41.81 1.81-4.5 3.13-7.48 4.05-9.37-1.19 15.42 4.26 47.27 4.89 50.86z" fill="#00ffc4" fill-rule="evenodd" data-name="Составная фигура"/><path d="M578.51 273.43c-2.94-1.44-18.08.39-23-.5-3.08 2.41-3.27 1.83-6 5 .13 5.83 2.42 5.23 6 7.5 6.94.06 19 1.62 24-1 .09-3.5.67-9.13-1-11z" fill="#121214" fill-rule="evenodd" data-name="new_vector_shape_done"/><path d="M579.28 284.11h-23.82a4.77 4.77 0 0 1 0-9.54h23.82a1.1 1.1 0 0 0 0-2.19h-23.82a7 7 0 0 0 0 13.92h23.82a1.1 1.1 0 0 0 0-2.19z" fill="#fff" fill-rule="evenodd" data-name="Составная фигура"/><path d="M579.01 284.93c-9.68-.07-22.58-1.25-28.5 2.5a5.86 5.86 0 0 1-1 2.5c.17 4.19 1.84 4.58 3.5 7 7.27 0 20.55 1.48 26.5-.5a110 110 0 0 0-.5-11.5z" fill="#121214" fill-rule="evenodd" data-name="new_vector_shape_done"/><path d="M579.28 295.83h-23.82a4.77 4.77 0 0 1 0-9.53h23.82a1.1 1.1 0 0 0 0-2.19h-23.82a7 7 0 0 0 0 13.91h23.82a1.1 1.1 0 0 0 0-2.19z" fill="#fff" fill-rule="evenodd" data-name="Составная фигура"/><path d="M725.01 182.93c-3.65-.79-7.5.65-10-1-5.52.25-9.86 17.47-12 22.5-3.37 7.91-7.19 16.79-11 24.5-4.32 8.74-6 18.64-11.5 26-3.06 4.06-8.74 4-12.5 7h-44.5c-6.22 0-15.26-1.23-20.5.5v34.5h55c10.29 0 21.94.86 29.5-2 19.37-7.34 22.59-21.95 30.5-40.5 5.52-12.94 10.31-26.2 16-39.5 3.06-7.15 5.77-14.48 9-22 1.06-2.46 2.81-4.61 3-8a117.49 117.49 0 0 1-21-2z" fill="#121214" fill-rule="evenodd" data-name="new_vector_shape_done"/><path d="M746.87 183.93a1.1 1.1 0 0 0-1.43.6l-35.25 86.9a38.94 38.94 0 0 1-36.18 24.4h-69.52V263l59.24.19a24 24 0 0 0 4.11-.35 23.2 23.2 0 0 0 17.45-14l27.72-66.19a1.09 1.09 0 1 0-2-.84l-27.7 66.23a21 21 0 0 1-15.81 12.64 21.66 21.66 0 0 1-3.73.32l-61.43-.2v37.22h71.67a41.13 41.13 0 0 0 38.25-25.76l35.25-86.86a1.1 1.1 0 0 0-.64-1.47z" fill="#fff" fill-rule="evenodd" data-name="Составная фигура"/><path fill="#121214" fill-rule="evenodd" d="M700.17 146.55l-1.31 22.17 46.77-22.34v-9.6l-45.46 9.77z" data-name="Составная фигура"/><path d="M699.12 145.66l-1.46 24.84 49.06-23.44v-11.64zm45.41 0l-44.47 21.27 1.15-19.49 43.32-9.31z" fill="#fff" fill-rule="evenodd" data-name="Составная фигура"/><path d="M695.32 145.46l-2 24.71 2.15.34 6.07-25.05zm2 2.18h1.44l-2.16 8.9z" fill="#fff" fill-rule="evenodd" data-name="Составная фигура"/><rect x="603.39" y="258.75" width="19.35" height="38.18" rx="4.08" ry="4.08" fill="#121214" data-name="Составная фигура"/><path d="M618.66 257.65h-11.18a5.18 5.18 0 0 0-5.18 5.18v30a5.18 5.18 0 0 0 5.18 5.18h11.18a5.18 5.18 0 0 0 5.17-5.18v-30a5.18 5.18 0 0 0-5.17-5.18zm3 35.19a3 3 0 0 1-3 3h-11.18a3 3 0 0 1-3-3v-30a3 3 0 0 1 3-3h11.18a3 3 0 0 1 3 3z" fill="#fff" fill-rule="evenodd" data-name="Составная фигура"/><path d="M613.07 264.65a3.13 3.13 0 1 0 3.12 3.13 3.12 3.12 0 0 0-3.12-3.13z" fill="#00ffc4" fill-rule="evenodd" data-name="Составная фигура"/><path fill="#121214" d="M223.38 113.97h39.07v39.64h-39.07z" data-name="Составная фигура"/><path d="M222.29 112.87v41.83h41.26v-41.83zm39.07 39.64h-36.89v-37.45h36.89z" fill="#fff" fill-rule="evenodd" data-name="Составная фигура"/><path d="M276.01 179.43a63.79 63.79 0 0 1-9-18c-1.28-4.21-1.25-8.17-3-11.5l-40-4.5c-1.72 1.33-4 1.39-6 2.5-4.54 2.47-9.32 7.63-12 12-4.89 8-4.32 19.9-7 30-4.82 18.16-6.94 38.51-12 56.5-1.36 4.85-.65 8.65-2 13.5-2.59 9.34-3.35 19.55-6 29.5-.71 2.65-3.34 9.52-2 12 .89 7.54 10.33 5.9 17.5 7.5 11.93 2.66 36.71-.47 48-3 5-1.13 13.35-.16 17-2.5.86-.32.49-.1 1-.5 2.22-3.11 1.41-8.26 2.5-12.5 2.21-8.61 3.72-18.91 6-27.5.73-2.74.62-10.83 2-12.5l8-2.5a43.84 43.84 0 0 0 17-16.5 61.46 61.46 0 0 0 4-9.5c8-23.82-15.69-30.91-24-42.5z" fill="#121214" fill-rule="evenodd" data-name="new_vector_shape_done"/><path d="M292.86 193.45c-21.13-15-24.27-30.15-26-38.28-.68-3.29-1.09-5.27-2.49-6a1.1 1.1 0 1 0-1.06 1.92c.52.28 1 2.55 1.4 4.56 1.63 7.83 5 24.12 26.84 39.62 6.64 4.72 9.5 12.5 8 21.9-2.16 13.85-13.1 27.25-25.46 31.18l-4 1.28-10.29 52.82c-7.53 1.33-70.23 12-80.78 1.28a4.37 4.37 0 0 1-1.2-4.19l26-129.53a30.16 30.16 0 0 1 21.46-23.5 1.092 1.092 0 1 0-.6-2.1 32.32 32.32 0 0 0-23 25.18l-26 129.52a6.49 6.49 0 0 0 1.78 6.15c3.51 3.56 12 5.35 25.32 5.35q9.1 0 21.19-1.11c19-1.75 36.78-5 36.95-5l.74-.13 10.33-53 2.79-.89c13.31-4.23 24.65-18.08 27-32.93 1.61-10.35-1.56-18.88-8.92-24.1z" fill="#fff" fill-rule="evenodd" data-name="Составная фигура"/><path fill="#121214" fill-rule="evenodd" d="M267.67 146.55l-45.46-9.77v9.6l46.77 22.34-1.31-22.17z" data-name="Составная фигура"/><path d="M268.71 145.66l-47.6-10.24v11.64l49.07 23.44zm-45.41 0v-7.53l43.33 9.31 1.15 19.49z" fill="#fff" fill-rule="evenodd" data-name="Составная фигура"/><path fill="#121214" fill-rule="evenodd" d="M273.66 147.86l-5.99-1.31 1.31 19.6 5.99 4.11-1.31-22.4z" data-name="Составная фигура"/><path d="M274.71 146.93l-8.23-1.79 1.44 21.57 8.27 5.68zm-4.7 18.61l-1.15-17.61 3.76.81 1.13 19.35z" fill="#fff" fill-rule="evenodd" data-name="Составная фигура"/><path d="M410.53 246.2a1.73 1.73 0 1 0 1.63 1.81 1.72 1.72 0 0 0-1.63-1.81z" fill="#2b2b2b" fill-rule="evenodd" data-name="Составная фигура"/><path d="M536.01 251.93s-2.4-6.06-5-12.57c-3-7.55-6.21-15.71-6.21-15.71-.92-2.33-4-3.32-6.77-2.2l-6.74 2.67c-2.83 1.12-4.37 3.91-3.44 6.25l5.16 12.56 6.05 15.76c.92 2.33 4 3.32 6.78 2.2l6.74-2.66c2.85-1.16 4.43-3.96 3.43-6.3z" fill="#121214" fill-rule="evenodd" data-name="Составная фигура"/><path d="M537.06 251.54l-11.17-28.28a5.23 5.23 0 0 0-3.35-3 7.19 7.19 0 0 0-4.85.21l-6.74 2.67c-3.37 1.34-5.19 4.78-4.05 7.68l5.11 12.46 6 15.77a5.24 5.24 0 0 0 3.36 3 6.84 6.84 0 0 0 2.07.32 7.5 7.5 0 0 0 2.77-.54l6.74-2.67c3.44-1.3 5.26-4.73 4.11-7.62zm-4.85 5.63l-6.74 2.67a5.1 5.1 0 0 1-3.37.17 3.1 3.1 0 0 1-2-1.75l-6.09-15.79-5.08-12.54c-.7-1.77.57-3.93 2.83-4.82l6.74-2.67a5.27 5.27 0 0 1 2-.39 4.36 4.36 0 0 1 1.4.22 3.11 3.11 0 0 1 2 1.76l11.11 28.31c.72 1.77-.55 3.93-2.8 4.83z" fill="#fff" fill-rule="evenodd" data-name="Составная фигура"/><path d="M421.17 261.31h-8.37a3.8 3.8 0 0 0-3.8 3.8v4.13a3.8 3.8 0 0 0 3.8 3.8h8.37a2.55 2.55 0 0 0 2.55-2.55v-6.63a2.55 2.55 0 0 0-2.55-2.55z" fill="#121214" fill-rule="evenodd" data-name="Составная фигура"/><path d="M421.17 260.22h-8.37a4.9 4.9 0 0 0-4.89 4.89v4.13a4.9 4.9 0 0 0 4.89 4.89h8.37a3.65 3.65 0 0 0 3.65-3.64v-6.63a3.65 3.65 0 0 0-3.65-3.64zm1.46 10.27a1.45 1.45 0 0 1-1.46 1.45h-8.37a2.7 2.7 0 0 1-2.7-2.7v-4.13a2.7 2.7 0 0 1 2.7-2.7h8.37a1.45 1.45 0 0 1 1.46 1.45z" fill="#fff" fill-rule="evenodd" data-name="Составная фигура"/><path d="M420.74 272.93h-7.94a3.8 3.8 0 0 0-3.8 3.8v4.12a3.8 3.8 0 0 0 3.8 3.8h7.94a3 3 0 0 0 3-3v-5.72a3 3 0 0 0-3-3z" fill="#121214" fill-rule="evenodd" data-name="Составная фигура"/><path d="M420.74 271.84h-7.94a4.91 4.91 0 0 0-4.89 4.9v4.12a4.9 4.9 0 0 0 4.89 4.89h7.94a4.08 4.08 0 0 0 4.08-4.07v-5.75a4.08 4.08 0 0 0-4.08-4.09zm1.89 9.84a1.89 1.89 0 0 1-1.89 1.89h-7.94a2.71 2.71 0 0 1-2.7-2.71v-4.12a2.7 2.7 0 0 1 2.7-2.71h7.94a1.89 1.89 0 0 1 1.89 1.89z" fill="#fff" fill-rule="evenodd" data-name="Составная фигура"/><path d="M416.57 284.93h-8a3.8 3.8 0 0 0-3.8 3.8v4.2a3.8 3.8 0 0 0 3.8 3.8h8a3 3 0 0 0 3-3v-5.8a3 3 0 0 0-3-3z" fill="#121214" fill-rule="evenodd" data-name="Составная фигура"/><path d="M416.57 283.87h-8a4.9 4.9 0 0 0-4.9 4.89v4.17a4.91 4.91 0 0 0 4.9 4.9h8a4.06 4.06 0 0 0 4.05-4.05v-5.85a4.06 4.06 0 0 0-4.05-4.06zm1.86 9.86a1.86 1.86 0 0 1-1.86 1.86h-8a2.71 2.71 0 0 1-2.71-2.71v-4.12a2.7 2.7 0 0 1 2.71-2.7h8a1.86 1.86 0 0 1 1.86 1.86z" fill="#fff" fill-rule="evenodd" data-name="Составная фигура"/><path d="M517.79 227.28a3.13 3.13 0 1 0 3.12 3.13 3.12 3.12 0 0 0-3.12-3.13z" fill="#00ffc4" fill-rule="evenodd" data-name="Составная фигура"/><path d="M507.51 229.93h-2.5c-1.91 1.77-4.88 1.89-7.5 3-6.62 2.81-13.32 5.2-20.5 8a278.58 278.58 0 0 0-31.5 15c-4.66 2.53-9.9 6.68-15.5 8 1.28 3.49 7.34 4.78 10.5 6.5 5.62 3.06 11.81 6 17.5 9.5 3.29 2 6.85 5 11 6 2.35.85 11.39-5.59 14-7 5.78-3.14 11.53-6.06 17-9 2.09-1.12 4.16-1.16 6-2.5l2.5-3.5c3.55-2.18 8-3.12 11.5-5-3.21-9.83-10-18.79-12.5-29z" fill="#121214" fill-rule="evenodd" data-name="new_vector_shape_done"/><path d="M507.7 228.02l-12.3 5a1.1 1.1 0 0 0-.61 1.42 1.11 1.11 0 0 0 1.43.61l10.31-4.16 12 27.65-10.73 4.77-.17.22a31.89 31.89 0 0 1-2.53 2.92l-35.61 18.84-37.76-20.6 37.72-19.14a1.096 1.096 0 1 0-1-1.95l-41.43 21 42.44 23.15 36.81-19.46.15-.08.11-.12a34.94 34.94 0 0 0 2.66-3l12.2-5.42z" fill="#fff" fill-rule="evenodd" data-name="Составная фигура"/><path d="M506.51 262.93c-2.35-3.53-7.88-4.2-12-6-8.72-3.8-18-8.53-26.5-12.5a25.43 25.43 0 0 1 0-9c-5.22-2.17-16.55-4.48-23-4.5-1.42 1.82-4.05 2.24-5.5 4-4.27.34-10.49-.14-13-3-1 .2-1 .12-1.5.5-4 5-4.69 21-9 25 1.2 4.38 9 3.78 12 6.5 2.32 2.09 3.89 5.14 6.5 7 8.16 5.81 19.26 7.92 28.5 12.5 3.12 1.54 10.65 7 14.5 4l2-2v-3.5c-1.33-1.24-2.58-2.28-4-3.5-.74-.34 1.79-2.5 2.5-3 3.54-2.48 10.1-7.8 14-9 .64-.65 7.75 2.49 9 3.5a10.3 10.3 0 0 0 5.5-1.5c.8-1.87 1.42-3.78 0-5.5z" fill="#121214" fill-rule="evenodd" data-name="new_vector_shape_done"/><path d="M508.25 263.54a5.75 5.75 0 0 0-3.19-3.53l-31.41-13.63-3.9-2.2a2.65 2.65 0 0 1-1.26-3.11l.37-7-1-.18c-4.28-.78-11.31-2.08-11.91-2.26-.65-.22-2.62-.59-10-1.89l-.41-.07-6 3.65a6.43 6.43 0 0 1-5.55.58l-9.83-3.5-9 27.63-.52 1.34 12.17 5.32a34.7 34.7 0 0 0 13.37 10.28l28 12.17 4.18 1.78a5.87 5.87 0 0 0 2.38.49 5.79 5.79 0 0 0 5.26-3.2 6.2 6.2 0 0 0 .19-4.82 5.47 5.47 0 0 0-2.94-3.13l-2.44-1.09a1.095 1.095 0 0 0-.89 2l2.45 1.1a3.31 3.31 0 0 1 1.77 1.91 4 4 0 0 1-.12 3.1 3.7 3.7 0 0 1-4.71 1.65l-32.13-13.94a32.54 32.54 0 0 1-12.68-9.84l-.17-.22-10.79-4.72 8.12-25 7.72 2.74a8.62 8.62 0 0 0 7.42-.77l5.25-3.22c3.45.61 8.69 1.55 9.22 1.71.68.23 2.87.66 11.3 2.2l-.22 4.67a4.82 4.82 0 0 0 2.34 5.53l3.92 2.22L504.18 262a3.55 3.55 0 0 1 2 2.18 3.51 3.51 0 0 1-.36 2.94c-.94 1.56-3.71 1.89-5.48 1.12l-7.81-3.27a1.09 1.09 0 0 0-1.43.59 1.08 1.08 0 0 0 .58 1.43l7.8 3.26c2.68 1.17 6.62.64 8.21-2a5.78 5.78 0 0 0 .56-4.71z" fill="#fff" fill-rule="evenodd" data-name="Составная фигура"/><path d="M467.01 226.93c-3.86 2.4-11.69-.87-16.5.51-2.77.8-2.93 2.63-4.5 4.59.13 3 .93 3.76 2 5.6 4.4 1.07 14.34-.71 18 1 2.55 1.21 2 3.82 3.5 6.12 1.78.77 4.21-1.36 6-2 6-2.28 15.42-4 20-7.64l.5-.51c-8.19-4.13-16.24-7.87-29-7.67z" fill="#121214" fill-rule="evenodd" data-name="new_vector_shape_done"/><path d="M496.49 233.31l-6-3a41.06 41.06 0 0 0-17.48-4.67l-4.43-.16-17.94.63a6.36 6.36 0 0 0-6.12 6.82 6.5 6.5 0 0 0 6.69 5.9l10.38-.37a6.87 6.87 0 0 1 5 1.92 2.61 2.61 0 0 1 .8 2.25v.15a5.17 5.17 0 0 0 .57 2.36 1.08 1.08 0 0 0 .94.53 1.15 1.15 0 0 0 .56-.15 1.1 1.1 0 0 0 .37-1.51 3 3 0 0 1-.25-1.19 4.77 4.77 0 0 0-1.46-4 9.18 9.18 0 0 0-6.6-2.53l-10.38.37a4.26 4.26 0 0 1-4.43-3.87 4.17 4.17 0 0 1 1.06-3.09 4.12 4.12 0 0 1 2.95-1.38l17.87-.64 4.35.16a38.91 38.91 0 0 1 16.63 4.45l6 3a1.118 1.118 0 0 0 1-2z" fill="#fff" fill-rule="evenodd" data-name="Составная фигура"/><path d="M454.8 270.01l-1-1.86a4.92 4.92 0 0 0-6.71-1.88l-9.59 5.39a4.93 4.93 0 0 0-1.89 6.71l1 1.86a4.94 4.94 0 0 0 6.72 1.89l9.59-5.39a4.93 4.93 0 0 0 1.88-6.72z" fill="#121214" fill-rule="evenodd" data-name="Составная фигура"/><path d="M455.76 269.48l-1-1.86a6 6 0 0 0-8.21-2.31l-9.59 5.39a6 6 0 0 0-2.3 8.21l1 1.86a6 6 0 0 0 3.62 2.85 6.18 6.18 0 0 0 1.64.23 5.91 5.91 0 0 0 2.94-.78l9.59-5.39a6 6 0 0 0 2.31-8.2zm-3.38 6.3l-9.59 5.39a3.85 3.85 0 0 1-5.22-1.47l-1-1.86a3.85 3.85 0 0 1 1.46-5.23l9.59-5.39a3.86 3.86 0 0 1 2.92-.35 3.8 3.8 0 0 1 2.31 1.82l1 1.86a3.84 3.84 0 0 1-1.47 5.23z" fill="#fff" fill-rule="evenodd" data-name="Составная фигура"/><path d="M493.51 255.93c-.91 3.34-2.94 8.39-5 11 .74 1.5 14.57 8.07 18 7 2.24-.7 2.92-3.12 4.5-4.5-.07-8.8-11.62-10.5-17.5-13.5z" fill="#121214" fill-rule="evenodd" data-name="new_vector_shape_done"/><path d="M507.44 261.21l-13.51-6a1.08 1.08 0 0 0-1.44.55 1.1 1.1 0 0 0 .55 1.45l13.53 6a4.92 4.92 0 0 1 2.63 6.42l-.11.26a4.9 4.9 0 0 1-6.41 2.64l-13.88-5.81a1.09 1.09 0 0 0-1.43.59 1.08 1.08 0 0 0 .58 1.43l13.89 5.81a7.19 7.19 0 0 0 2.73.55 7.13 7.13 0 0 0 6.54-4.36l.11-.27a7.1 7.1 0 0 0-3.78-9.26z" fill="#fff" fill-rule="evenodd" data-name="Составная фигура"/><path d="M499.51 273.43c-1.92-2.79-9-5.55-12.5-6.5-2.19 3.15-8.13 6.1-11.5 8 .74 1.51 14.26 7.28 16.5 8a6.6 6.6 0 0 0 5.5-1c2.11-.85 2-2.66 3.5-4a7.31 7.31 0 0 0-1.5-4.5z" fill="#121214" fill-rule="evenodd" data-name="new_vector_shape_done"/><path d="M497.3 270.24l-9.54-4a1.09 1.09 0 1 0-.84 2l9.53 4a4.92 4.92 0 0 1 2.64 6.42l-.08.27a4.88 4.88 0 0 1-6.41 2.63l-17.26-7.12a1.09 1.09 0 1 0-.83 2l17.25 7.12a7.07 7.07 0 0 0 9.27-3.81l.11-.27a7.09 7.09 0 0 0-3.84-9.24z" fill="#fff" fill-rule="evenodd" data-name="Составная фигура"/><path d="M486.51 282.43c-1.18-3.58-7.89-6.51-12.5-6.5-1.88 2.85-6 6.27-9 8 2.07 4.05 10.57 3.58 13.5 7 5.81.1 5.92-1.69 8.5-4.5 0-1.5.07-3.16-.5-4z" fill="#121214" fill-rule="evenodd" data-name="new_vector_shape_done"/><path d="M483.79 278.01l-8.48-3.56a1.1 1.1 0 0 0-.85 2l8.49 3.56a4.92 4.92 0 0 1 2.63 6.42l-.11.26a4.9 4.9 0 0 1-6.41 2.64l-13.89-5.8a1.09 1.09 0 1 0-.84 2l13.88 5.81a7.11 7.11 0 0 0 9.28-3.81l.11-.27a7.12 7.12 0 0 0-3.81-9.25z" fill="#fff" fill-rule="evenodd" data-name="Составная фигура"/><path d="M439.01 259.93h-5.5c-2.29 2.71-7 3-9.5 5.5-.91.91-1.1 2.58-2 3.5.21 4.23 2.14 4.67 4 7 7.62-.05 10.89-4 15.5-7a25.1 25.1 0 0 0 .5-5.5z" fill="#121214" fill-rule="evenodd" data-name="new_vector_shape_done"/><path d="M442.34 262.18a7.08 7.08 0 0 0-9.65-2.71l-7.75 4.35a7.092 7.092 0 1 0 6.94 12.37l7.75-4.35a7.12 7.12 0 0 0 2.71-9.66zm-3.79 7.75l-7.74 4.35a4.903 4.903 0 0 1-4.8-8.55l7.75-4.36a4.93 4.93 0 0 1 2.39-.63 5.09 5.09 0 0 1 1.33.19 4.86 4.86 0 0 1 2.95 2.32 4.91 4.91 0 0 1-1.88 6.68z" fill="#fff" fill-rule="evenodd" data-name="Составная фигура"/><path d="M464.7 278.12l-1-1.86a4.92 4.92 0 0 0-6.71-1.88l-5.75 3.23a4.93 4.93 0 0 0-1.89 6.71l1 1.86a4.94 4.94 0 0 0 6.72 1.89l5.74-3.23a4.94 4.94 0 0 0 1.89-6.72z" fill="#121214" fill-rule="evenodd" data-name="Составная фигура"/><path d="M465.65 277.59l-1-1.86a6 6 0 0 0-8.2-2.31l-5.75 3.23a6 6 0 0 0-2.3 8.21l1 1.86a6 6 0 0 0 3.62 2.85 6.13 6.13 0 0 0 1.64.23 5.91 5.91 0 0 0 2.94-.78l5.75-3.23a6 6 0 0 0 2.3-8.2zm-3.37 6.3l-5.75 3.23a3.85 3.85 0 0 1-5.22-1.47l-1-1.86a3.85 3.85 0 0 1 1.46-5.23l5.75-3.23a3.86 3.86 0 0 1 2.92-.35 3.8 3.8 0 0 1 2.3 1.82l1.05 1.86a3.86 3.86 0 0 1-1.51 5.27z" fill="#fff" fill-rule="evenodd" data-name="Составная фигура"/><path d="M412.51 226.93c-9.57-3.61-18.94-6.56-28-10-27.86-10.58-56.14-19.58-83.5-30-13.18-5-26.36-9.17-39-14-4.69-1.79-10.48-2-14-5a9 9 0 0 0-3 .5c.19 2.64 1.56 5.43 1.5 8-.07 3-1.85 6.52-2.5 9-1.2 4.6 2.25 10.63 4 13 3.85 5.21 26.67 10.55 34.5 13.5 32.81 12.35 67.24 23.53 100 36 9.66 3.68 19.28 6.55 28.5 10 3.2 1.2 8.74 1.4 10.5 4h1.5c2.07-8.49 6.06-19.66 6-29-6-.86-11.4-4.08-16.5-6z" fill="#121214" fill-rule="evenodd" data-name="new_vector_shape_done"/><path d="M429.71 232.36l-180-64.54c-2.5-.89-4.13-1.24-5.08-.38s-.6 2.2-.18 3.9c.58 2.29 1.36 5.42.07 9a19.74 19.74 0 0 0 0 13.66 15.72 15.72 0 0 0 9.51 9.32l168.77 59.61a1.19 1.19 0 0 0 .37.06 1.1 1.1 0 0 0 .36-2.13L254.78 201.3c-7.76-2.77-11.27-11.45-8.16-20.18a16.83 16.83 0 0 0 0-10.31 12.94 12.94 0 0 1-.36-1.68 11.42 11.42 0 0 1 2.75.8l180 64.54a1.09 1.09 0 0 0 1.4-.66 1.11 1.11 0 0 0-.7-1.45z" fill="#fff" fill-rule="evenodd" data-name="Составная фигура"/><path d="M282.01 177.93c-7.92-3-16.13-5.83-24.5-9-3.72-1.41-7.6-3.69-12-4.5-3.06 7-6.57 14.16-9.5 21-1.54 3.59-2.28 8.58-5 11 1.62 3.12 8 3.2 11.5 4.5 8 2.95 17 6 25 9 3.73 1.39 9 1.39 11.5 4 10.71 0 9.08-21.78 15-27.5-.09-7.09-6.85-6.5-12-8.5z" fill="#121214" fill-rule="evenodd" data-name="new_vector_shape_done"/><path d="M291.26 179.81l-45.25-16.55a1.09 1.09 0 1 0-.75 2l45.29 16.56a3.3 3.3 0 0 1 2 4.17l-8.54 24.47a3.29 3.29 0 0 1-4.14 2l-48.32-16.18a1.1 1.1 0 0 0-.69 2.08l48.31 16.18a5.43 5.43 0 0 0 1.72.28 5.51 5.51 0 0 0 5.12-3.59l8.53-24.47a5.5 5.5 0 0 0-3.28-6.95z" fill="#fff" fill-rule="evenodd" data-name="Составная фигура"/><path d="M304.01 43.93c-3-4.57-8.59-8.41-14.5-10h-53.5c-1.82 1.58-4.9 1.7-7 3a25.73 25.73 0 0 0-9 11c-3.05 7.41-1.5 20.73-1.5 30.5s-1 20.81 1.5 28.5c6.74 20.36 31.37 41 60 29 14-5.85 23.05-18 27-34l.5-28c0-10.95.87-23.29-3.5-30z" fill="#121214" fill-rule="evenodd" data-name="new_vector_shape_done"/><path d="M284.53 32.35h-43.15a23.83 23.83 0 0 0-23.83 23.84v38.14a45.4 45.4 0 1 0 90.8 0V56.2a23.86 23.86 0 0 0-23.82-23.85zm21.64 62a43.22 43.22 0 1 1-86.43 0v-27a.49.49 0 0 0 0-.12v-11a21.65 21.65 0 0 1 21.64-21.65h43.15a21.68 21.68 0 0 1 21.64 21.66z" fill="#fff" fill-rule="evenodd" data-name="Составная фигура"/><path d="M287.95 92.93a1.09 1.09 0 0 0-1.09 1.1 5.6 5.6 0 0 1-5.6 5.6 1.1 1.1 0 0 0 0 2.19 7.81 7.81 0 0 0 7.79-7.79 1.1 1.1 0 0 0-1.1-1.1z" fill="#fff" fill-rule="evenodd" data-name="Составная фигура"/><path d="M292.94 113.23a1.1 1.1 0 0 0-1.53.1 5 5 0 0 1-1.17.82l-.74.07a2.85 2.85 0 0 1-2.44-1.1 3.92 3.92 0 0 0-2.73-1.37h-6.13a4.78 4.78 0 0 0-2.69 1 5.93 5.93 0 0 1-3.14 1.15 5.74 5.74 0 0 1-1-.65 1.092 1.092 0 0 0-1.54 1.55 7.44 7.44 0 0 0 1.48 1l1.62 2.28a7.85 7.85 0 0 0 2.79 2.46 12.3 12.3 0 0 0 10.34.1 7.57 7.57 0 0 0 3.06-2.83l.76-1.16a8.32 8.32 0 0 0 3.15-2 1.09 1.09 0 0 0-.09-1.42z" fill="#00ffc4" fill-rule="evenodd" data-name="Составная фигура"/><path d="M278.51 3.93c-25.09-9.22-56.66 2.43-67.5 17-8.42 11.32-9.91 23.61-14 39.5-1.25 4.86-1.24 17.29-4 20v1.5c7.46 1.8 15.5 2 23.5 4 3.71 1 7.71 2.07 12.5 2-.07-3.5-1.15-13 1-14.5s8.82-.46 12-.5l22-2c13-3 26.78-4 38-9 4.23-1.9 8.62-5.68 13-7 .15-27.38-16.52-43.65-36.5-51z" fill="#121214" fill-rule="evenodd" data-name="new_vector_shape_done"/><path d="M300.64 16.68C289.75 5.77 274.87 0 257.64 0c-30.48 0-53.49 18-58.6 45.76l-6.79 36.25 2.15.4 6.79-36.26c4.92-26.71 27.08-44 56.45-44 27.2 0 56.1 18.1 56.4 51.66-18 13.64-63.15 18.14-81.74 18.14h-.54a3.92 3.92 0 0 0-2.82 1.17 4 4 0 0 0-1.19 2.83v12.33h2.18l.05-12.33a1.78 1.78 0 0 1 .54-1.29 1.69 1.69 0 0 1 1.29-.53c18.6.1 65.69-4.56 84-18.93l.42-.33v-.53a53 53 0 0 0-15.59-37.66z" fill="#fff" fill-rule="evenodd" data-name="Составная фигура"/><path d="M216.51 77.93c-1.29 1.14-3.5 1-5 2-1.92 1.29-2.74 4-4.5 5.5-.12 2.11-.73 3.79 0 5 .14 7.31 5.08 7.14 9 10.5 2.78 0 4.53-.27 6-1.5 3.68-1.38 4.13-7.15 7-9.5 0-7.23-5.45-11.86-12.5-12z" fill="#121214" fill-rule="evenodd" data-name="new_vector_shape_done"/><path d="M217.75 77.27a12.18 12.18 0 1 0 6 22.76 1.1 1.1 0 1 0-1.09-1.9 10 10 0 1 1 5-8.68 1.1 1.1 0 0 0 2.19 0 12.19 12.19 0 0 0-12.1-12.18z" fill="#fff" fill-rule="evenodd" data-name="Составная фигура"/><path d="M217.75 83.85a5.6 5.6 0 0 0-5.59 5.6 1.09 1.09 0 0 0 2.18 0 3.42 3.42 0 0 1 3.41-3.42 1.09 1.09 0 1 0 0-2.18zm206.98 145.7a2.19 2.19 0 0 0-2.72 1.38l-9 27.13a2.2 2.2 0 0 0 1.4 2.76 2.25 2.25 0 0 0 .68.11 2.18 2.18 0 0 0 2.08-1.5l8.95-27.12a2.19 2.19 0 0 0-1.39-2.76z" fill="#fff" fill-rule="evenodd" data-name="Составная фигура"/><path d="M218.37 95.57a2.91 2.91 0 1 0 2.91 2.91 2.9 2.9 0 0 0-2.91-2.91z" fill="#00ffc4" fill-rule="evenodd" data-name="Составная фигура"/><ellipse cx="420.08" cy="243.62" rx="9.11" ry="9.12" fill="#00ffc4" data-name="Составная фигура"/><path d="M951.19 296.93H8.81a7.86 7.86 0 0 0-7.81 7.9v10.1h958.01v-10.1a7.86 7.86 0 0 0-7.82-7.9z" fill="#121214" fill-rule="evenodd" data-name="Составная фигура"/><path d="M951.09 296.93H8.91a8.7 8.7 0 0 0-8.9 8.46v10.54h960v-10.54a8.7 8.7 0 0 0-8.92-8.46zm6.72 16.92H2.19v-8.46A6.57 6.57 0 0 1 8.91 299h942.18a6.57 6.57 0 0 1 6.72 6.39z" fill="#fff" fill-rule="evenodd" data-name="Составная фигура"/><path fill="#121214" d="M2.01 312.93h956v3h-956z" data-name="Rectangle 1"/></svg>