<svg xmlns="http://www.w3.org/2000/svg" viewBox="0 0 105.6 111.83"><path d="M14.15 72.69a8.28 8.28 0 0 0-2.64-1.77 8.33 8.33 0 0 0-6.45 0 8.26 8.26 0 0 0-4.41 4.39A8 8 0 0 0 0 78.52v11.22h4.14v-4.05a7.79 7.79 0 0 0 2.84 1 8.94 8.94 0 0 0 2.83 0 8.31 8.31 0 0 0 4.76-2.73A8.45 8.45 0 0 0 16 81.49a8.4 8.4 0 0 0-.1-6.18 8.3 8.3 0 0 0-1.75-2.62zm-2.06 7.45a4.25 4.25 0 0 1-.88 1.31 4.18 4.18 0 0 1-1.32.88 4 4 0 0 1-1.61.33 4 4 0 0 1-1.62-.33 4.2 4.2 0 0 1-1.3-.88 4.28 4.28 0 0 1-.89-1.31 4 4 0 0 1-.33-1.62 3.9 3.9 0 0 1 .33-1.59 4.45 4.45 0 0 1 .89-1.32 3.88 3.88 0 0 1 1.3-.88 4.14 4.14 0 0 1 1.62-.32 4.2 4.2 0 0 1 1.61.32 3.87 3.87 0 0 1 1.32.88 4.42 4.42 0 0 1 .88 1.32 3.9 3.9 0 0 1 .33 1.59 4 4 0 0 1-.33 1.62zm19.62 6.05a8.24 8.24 0 0 0 4.4-4.41 8.17 8.17 0 0 0 .64-3.23v-8.28h-4.11v8.28a4 4 0 0 1-.33 1.62 4.25 4.25 0 0 1-.88 1.31 4.18 4.18 0 0 1-1.32.88 4 4 0 0 1-1.61.33 4 4 0 0 1-1.62-.33 4.42 4.42 0 0 1-1.32-.88 3.93 3.93 0 0 1-.88-1.31 4.14 4.14 0 0 1-.32-1.62v-8.28h-4.14v8.28a8.17 8.17 0 0 0 .65 3.23 8.21 8.21 0 0 0 4.41 4.41 8.12 8.12 0 0 0 3.22.64 8 8 0 0 0 3.21-.64zm25.08.64v-4.14h-8.4l8.4-12.42H40.56v4.14H49l-8.43 12.42zm20.07 0v-4.14h-8.4l8.4-12.42H60.63v4.14h8.43l-8.43 12.42zm4 0H85v-20.7h-4.14zm23.6-12.58a8 8 0 0 0-2.78-2.78 8.54 8.54 0 0 0-3.69-1.15 8.72 8.72 0 0 0-3.84.52 7.88 7.88 0 0 0-5 6.33 7.87 7.87 0 0 0 2.63 7.62 8.58 8.58 0 0 0 3.43 1.77 8.74 8.74 0 0 0 3.87.14 7.82 7.82 0 0 0 6-5.39h-4.71a4 4 0 0 1-1.8 1.19 4.17 4.17 0 0 1-5.16-2.51h12q.06-.36.09-.72t0-.72a8.06 8.06 0 0 0-.99-4.3zm-10.31 1.6a4.27 4.27 0 0 1 1.46-1.09 3.9 3.9 0 0 1 3.36 0 4.24 4.24 0 0 1 1.45 1.09zm-61.12 27.7a4 4 0 0 1-.33 1.62 4.28 4.28 0 0 1-.89 1.31 4.18 4.18 0 0 1-1.32.88 4 4 0 0 1-1.6.33h-1.33v4.14h1.38a8 8 0 0 0 3.21-.64 8.3 8.3 0 0 0 2.62-1.77 8.5 8.5 0 0 0 1.79-2.64 8 8 0 0 0 .66-3.23v-8.28h-4.14zm22-5.92a8.81 8.81 0 0 0-2.64-1.73 8 8 0 0 0-6.31 0 8.57 8.57 0 0 0-2.63 1.79 8.3 8.3 0 0 0-1.77 2.62 8.18 8.18 0 0 0 1.86 9.14 8.78 8.78 0 0 0 2.64 1.72 7.89 7.89 0 0 0 3.11.63 8 8 0 0 0 3.21-.64 8.26 8.26 0 0 0 4.39-4.41 8.17 8.17 0 0 0 .65-3.23 8.09 8.09 0 0 0-2.51-5.92zm-2 7.54a3.93 3.93 0 0 1-.88 1.31 4.42 4.42 0 0 1-1.32.88 3.9 3.9 0 0 1-1.59.33 4 4 0 0 1-1.62-.33 4.1 4.1 0 0 1-2.19-2.19 4.09 4.09 0 0 1 0-3.22 4.18 4.18 0 0 1 .88-1.32 4.28 4.28 0 0 1 1.31-.89 4 4 0 0 1 1.62-.33 3.9 3.9 0 0 1 1.59.33 4.45 4.45 0 0 1 1.32.89 3.87 3.87 0 0 1 .88 1.32 4.21 4.21 0 0 1 0 3.22zm22.86-7a8.25 8.25 0 0 0-10.39-1.79v-5.22h-4.14v12.39a8.17 8.17 0 0 0 .64 3.23 8.21 8.21 0 0 0 4.41 4.41 8.17 8.17 0 0 0 3.23.64 8 8 0 0 0 3.21-.64 8.26 8.26 0 0 0 4.39-4.41 8.17 8.17 0 0 0 .65-3.23 7.93 7.93 0 0 0-.54-3A8.5 8.5 0 0 0 76 98.17zm-2.46 7a3.93 3.93 0 0 1-.88 1.31 4.42 4.42 0 0 1-1.32.88 3.9 3.9 0 0 1-1.59.33 4 4 0 0 1-1.62-.33 4.1 4.1 0 0 1-2.19-2.19 4.09 4.09 0 0 1 0-3.22 4.18 4.18 0 0 1 .88-1.32 4.28 4.28 0 0 1 1.31-.89 4 4 0 0 1 1.62-.33 3.9 3.9 0 0 1 1.59.33 4.45 4.45 0 0 1 1.32.89 3.87 3.87 0 0 1 .88 1.32 4.21 4.21 0 0 1 0 3.22z" fill="#121214" fill-rule="evenodd" data-name="Puzzler"/><path d="M28 25v20.73A4.35 4.35 0 0 0 32.43 50H53V25z" fill="#fd4e26" fill-rule="evenodd" data-name="Составная фигура"/><path d="M53 25v25h21c2.36 0 4-2.22 4-4.62V25z" fill="#08469c" fill-rule="evenodd" data-name="Составная фигура"/><path d="M73.57 0H53v25h25V4.51A4.47 4.47 0 0 0 73.57 0z" fill="#159ce4" fill-rule="evenodd" data-name="Составная фигура"/><path d="M32.27 0A4.33 4.33 0 0 0 28 4.39V25h25V0z" fill="#f9bc35" fill-rule="evenodd" data-name="Составная фигура"/><circle cx="52.5" cy="37.5" r="6.5" fill="#08469c" data-name="Ellipse 1"/><circle cx="40.5" cy="25.5" r="6.5" fill="#fd4e26" data-name="Ellipse 1 copy"/><circle cx="53.5" cy="12.5" r="6.5" fill="#f9bc35" data-name="Ellipse 1 copy 2"/><circle cx="65.5" cy="25.5" r="6.5" fill="#159ce4" data-name="Ellipse 1 copy 3"/></svg>