<svg xmlns="http://www.w3.org/2000/svg" viewBox="0 0 660 590"><g data-name="Building #1"><g data-name="Rectangle 664"><path fill="#121214" d="M1.5 372.5h111v216H1.5z"/><path d="M111 374v213H3V374h108m3-3H0v219h114V371z" fill="#fff"/></g><path fill="#121214" d="M3 587h107v3H3z" data-name="Rectangle 671"/><path fill="#fff" d="M18 389h8v201h-8z" data-name="Rectangle 666"/><path fill="#fff" d="M36 389h8v201h-8z" data-name="Rectangle 666 copy"/><path fill="#fff" d="M53 389h8v201h-8z" data-name="Rectangle 666 copy 2"/><path fill="#fff" d="M71 389h8v201h-8z" data-name="Rectangle 666 copy 3"/><path fill="#fff" d="M88 389h8v201h-8z" data-name="Rectangle 666 copy 4"/></g><g data-name="Building #2"><g data-name="Rectangle 664"><path fill="#121214" d="M111.5 266.5h127v322h-127z"/><path d="M237 268v319H113V268h124m3-3H110v325h130V265z" fill="#fff"/></g><g data-name="Rectangle 664 copy"><path fill="#121214" d="M106.5 250.5h132v16h-132z"/><path d="M237 252v13H108v-13h129m3-3H105v19h135v-19z" fill="#fff"/></g><path fill="#121214" d="M113 587h124v3H113z" data-name="Rectangle 671"/><path fill="#00ffc4" d="M132 285h17v10h-17z" data-name="Rectangle 706"/><path fill="#00ffc4" d="M159 285h17v10h-17z" data-name="Rectangle 706 copy"/><path fill="#fff" d="M186 285h17v10h-17z" data-name="Rectangle 706 copy 2"/><path fill="#fff" d="M213 285h17v10h-17z" data-name="Rectangle 706 copy 3"/><path fill="#00ffc4" d="M132 305h17v10h-17z" data-name="Rectangle 706 copy 4"/><path fill="#00ffc4" d="M159 305h17v10h-17z" data-name="Rectangle 706 copy 5"/><path fill="#fff" d="M186 305h17v10h-17z" data-name="Rectangle 706 copy 6"/><path fill="#fff" d="M213 305h17v10h-17z" data-name="Rectangle 706 copy 7"/><path fill="#00ffc4" d="M132 325h17v10h-17z" data-name="Rectangle 706 copy 8"/><path fill="#fff" d="M159 325h17v10h-17z" data-name="Rectangle 706 copy 9"/><path fill="#fff" d="M186 325h17v10h-17z" data-name="Rectangle 706 copy 10"/><path fill="#fff" d="M213 325h17v10h-17z" data-name="Rectangle 706 copy 11"/><path fill="#fff" d="M132 345h17v10h-17z" data-name="Rectangle 706 copy 12"/><path fill="#fff" d="M159 345h17v10h-17z" data-name="Rectangle 706 copy 13"/><path fill="#fff" d="M186 345h17v10h-17z" data-name="Rectangle 706 copy 14"/><path fill="#fff" d="M213 345h17v10h-17z" data-name="Rectangle 706 copy 15"/><path fill="#fff" d="M132 365h17v10h-17z" data-name="Rectangle 706 copy 16"/><path fill="#fff" d="M159 365h17v10h-17z" data-name="Rectangle 706 copy 17"/><path fill="#fff" d="M186 365h17v10h-17z" data-name="Rectangle 706 copy 18"/><path fill="#fff" d="M213 365h17v10h-17z" data-name="Rectangle 706 copy 19"/><path fill="#fff" d="M132 385h17v10h-17z" data-name="Rectangle 706 copy 20"/><path fill="#fff" d="M159 385h17v10h-17z" data-name="Rectangle 706 copy 21"/><path fill="#fff" d="M186 385h17v10h-17z" data-name="Rectangle 706 copy 22"/><path fill="#fff" d="M213 385h17v10h-17z" data-name="Rectangle 706 copy 23"/><path fill="#fff" d="M132 405h17v10h-17z" data-name="Rectangle 706 copy 24"/><path fill="#fff" d="M159 405h17v10h-17z" data-name="Rectangle 706 copy 25"/><path fill="#fff" d="M186 405h17v10h-17z" data-name="Rectangle 706 copy 26"/><path fill="#fff" d="M213 405h17v10h-17z" data-name="Rectangle 706 copy 27"/><path fill="#fff" d="M132 425h17v10h-17z" data-name="Rectangle 706 copy 28"/><path fill="#fff" d="M159 425h17v10h-17z" data-name="Rectangle 706 copy 29"/><path fill="#00ffc4" d="M186 425h17v10h-17z" data-name="Rectangle 706 copy 30"/><path fill="#00ffc4" d="M213 425h17v10h-17z" data-name="Rectangle 706 copy 31"/><path fill="#fff" d="M132 445h17v10h-17z" data-name="Rectangle 706 copy 32"/><path fill="#00ffc4" d="M159 445h17v10h-17z" data-name="Rectangle 706 copy 33"/><path fill="#fff" d="M186 445h17v10h-17z" data-name="Rectangle 706 copy 34"/><path fill="#fff" d="M213 445h17v10h-17z" data-name="Rectangle 706 copy 35"/><path fill="#fff" d="M132 465h17v10h-17z" data-name="Rectangle 706 copy 36"/><path fill="#fff" d="M159 465h17v10h-17z" data-name="Rectangle 706 copy 37"/><path fill="#fff" d="M186 465h17v10h-17z" data-name="Rectangle 706 copy 38"/><path fill="#fff" d="M213 465h17v10h-17z" data-name="Rectangle 706 copy 39"/><path fill="#fff" d="M132 485h17v10h-17z" data-name="Rectangle 706 copy 40"/><path fill="#fff" d="M159 485h17v10h-17z" data-name="Rectangle 706 copy 41"/><path fill="#fff" d="M186 485h17v10h-17z" data-name="Rectangle 706 copy 42"/><path fill="#fff" d="M213 485h17v10h-17z" data-name="Rectangle 706 copy 43"/><path fill="#fff" d="M132 505h17v10h-17z" data-name="Rectangle 706 copy 44"/><path fill="#fff" d="M159 505h17v10h-17z" data-name="Rectangle 706 copy 45"/><path fill="#fff" d="M186 505h17v10h-17z" data-name="Rectangle 706 copy 46"/><path fill="#fff" d="M213 505h17v10h-17z" data-name="Rectangle 706 copy 47"/><path fill="#fff" d="M132 525h17v10h-17z" data-name="Rectangle 706 copy 48"/><path fill="#fff" d="M159 525h17v10h-17z" data-name="Rectangle 706 copy 49"/><path fill="#fff" d="M186 525h17v10h-17z" data-name="Rectangle 706 copy 50"/><path fill="#fff" d="M213 525h17v10h-17z" data-name="Rectangle 706 copy 51"/><path fill="#fff" d="M132 545h17v10h-17z" data-name="Rectangle 706 copy 52"/><path fill="#fff" d="M159 545h17v10h-17z" data-name="Rectangle 706 copy 53"/><path fill="#fff" d="M186 545h17v10h-17z" data-name="Rectangle 706 copy 54"/><path fill="#fff" d="M213 545h17v10h-17z" data-name="Rectangle 706 copy 55"/><path fill="#fff" d="M132 565h17v10h-17z" data-name="Rectangle 706 copy 56"/><path fill="#fff" d="M159 565h17v10h-17z" data-name="Rectangle 706 copy 57"/><path fill="#00ffc4" d="M186 565h17v10h-17z" data-name="Rectangle 706 copy 58"/><path fill="#fff" d="M213 565h17v10h-17z" data-name="Rectangle 706 copy 59"/></g><g data-name="Building #3"><g data-name="Rectangle 664"><path fill="#121214" d="M148.5 182.5h90v65h-90z"/><path d="M237 184v62h-87v-62h87m3-3h-93v68h93v-68z" fill="#fff"/></g><g data-name="Rectangle 664 copy"><path fill="#121214" d="M143.5 166.5h95v16h-95z"/><path d="M237 168v13h-92v-13h92m3-3h-98v19h98v-19z" fill="#fff"/></g><path fill="#121214" d="M150 246h87v3h-87z" data-name="Rectangle 671"/><g data-name="Windows"><path fill="#00ffc4" d="M166 203h17v10h-17z" data-name="Rectangle 706 copy 60"/><path fill="#fff" d="M193 203h17v10h-17z" data-name="Rectangle 706 copy 61"/><path fill="#fff" d="M220 203h17v10h-17z" data-name="Rectangle 706 copy 62"/><path fill="#fff" d="M166 223h17v10h-17z" data-name="Rectangle 706 copy 63"/><path fill="#fff" d="M193 223h17v10h-17z" data-name="Rectangle 706 copy 64"/><path fill="#fff" d="M220 223h17v10h-17z" data-name="Rectangle 706 copy 65"/></g></g><g data-name="Building #4"><g data-name="Rectangle 664"><path fill="#121214" d="M238.5 30.5h192v558h-192z"/><path d="M429 32v555H240V32h189m3-3H237v561h195V29z" fill="#fff"/></g><g data-name="Rectangle 664 copy 5"><path fill="#121214" d="M430.5 30.5h33v558h-33z"/><path d="M462 32v555h-30V32h30m3-3h-36v561h36V29z" fill="#fff"/></g><path fill="#121214" d="M240 587h189v3H240z" data-name="Rectangle 671"/><path fill="#121214" d="M432 587h30v3h-30z" data-name="Rectangle 671 copy 2"/><g data-name="Rectangle 664 copy"><path fill="#121214" d="M230.5 14.5h205v16h-205z"/><path d="M434 16v13H232V16h202m3-3H229v19h208V13z" fill="#fff"/></g><g data-name="Rectangle 664 copy 2"><path fill="#121214" d="M435.5 14.5h34v16h-34z"/><path d="M468 16v13h-31V16h31m3-3h-37v19h37V13z" fill="#fff"/></g><g data-name="Rectangle 664 copy 3"><path fill="#121214" d="M401.5 1.5h34v13h-34z"/><path d="M434 3v10h-31V3h31m3-3h-37v16h37V0z" fill="#fff"/></g><g data-name="Rectangle 664 copy 4"><path fill="#121214" d="M262.5 1.5h139v13h-139z"/><path d="M400 3v10H264V3h136m3-3H261v16h142V0z" fill="#fff"/></g><g data-name="Windows copy"><path fill="#00ffc4" d="M258 45h17v10h-17z" data-name="Rectangle 706"/><path fill="#00ffc4" d="M285 45h17v10h-17z" data-name="Rectangle 706 copy"/><path fill="#00ffc4" d="M312 45h17v10h-17z" data-name="Rectangle 706 copy 2"/><path fill="#fff" d="M339 45h17v10h-17z" data-name="Rectangle 706 copy 3"/><path fill="#00ffc4" d="M366 45h17v10h-17z" data-name="Rectangle 706 copy 66"/><path fill="#fff" d="M393 45h17v10h-17z" data-name="Rectangle 706 copy 67"/><path fill="#00ffc4" d="M258 65h17v10h-17z" data-name="Rectangle 706 copy 68"/><path fill="#00ffc4" d="M285 65h17v10h-17z" data-name="Rectangle 706 copy 69"/><path fill="#00ffc4" d="M312 65h17v10h-17z" data-name="Rectangle 706 copy 70"/><path fill="#fff" d="M339 65h17v10h-17z" data-name="Rectangle 706 copy 71"/><path fill="#fff" d="M366 65h17v10h-17z" data-name="Rectangle 706 copy 72"/><path fill="#fff" d="M393 65h17v10h-17z" data-name="Rectangle 706 copy 73"/><path fill="#00ffc4" d="M258 85h17v10h-17z" data-name="Rectangle 706 copy 74"/><path fill="#fff" d="M285 85h17v10h-17z" data-name="Rectangle 706 copy 75"/><path fill="#fff" d="M312 85h17v10h-17z" data-name="Rectangle 706 copy 76"/><path fill="#fff" d="M339 85h17v10h-17z" data-name="Rectangle 706 copy 77"/><path fill="#fff" d="M366 85h17v10h-17z" data-name="Rectangle 706 copy 78"/><path fill="#fff" d="M393 85h17v10h-17z" data-name="Rectangle 706 copy 79"/><path fill="#fff" d="M258 105h17v10h-17z" data-name="Rectangle 706 copy 80"/><path fill="#fff" d="M285 105h17v10h-17z" data-name="Rectangle 706 copy 81"/><path fill="#fff" d="M312 105h17v10h-17z" data-name="Rectangle 706 copy 82"/><path fill="#fff" d="M339 105h17v10h-17z" data-name="Rectangle 706 copy 83"/><path fill="#fff" d="M366 105h17v10h-17z" data-name="Rectangle 706 copy 84"/><path fill="#fff" d="M393 105h17v10h-17z" data-name="Rectangle 706 copy 85"/><path fill="#fff" d="M258 125h17v10h-17z" data-name="Rectangle 706 copy 86"/><path fill="#fff" d="M285 125h17v10h-17z" data-name="Rectangle 706 copy 87"/><path fill="#fff" d="M312 125h17v10h-17z" data-name="Rectangle 706 copy 88"/><path fill="#fff" d="M339 125h17v10h-17z" data-name="Rectangle 706 copy 89"/><path fill="#fff" d="M366 125h17v10h-17z" data-name="Rectangle 706 copy 90"/><path fill="#fff" d="M393 125h17v10h-17z" data-name="Rectangle 706 copy 91"/><path fill="#fff" d="M258 145h17v10h-17z" data-name="Rectangle 706 copy 92"/><path fill="#fff" d="M285 145h17v10h-17z" data-name="Rectangle 706 copy 93"/><path fill="#fff" d="M312 145h17v10h-17z" data-name="Rectangle 706 copy 94"/><path fill="#fff" d="M339 145h17v10h-17z" data-name="Rectangle 706 copy 95"/><path fill="#fff" d="M366 145h17v10h-17z" data-name="Rectangle 706 copy 96"/><path fill="#fff" d="M393 145h17v10h-17z" data-name="Rectangle 706 copy 97"/><path fill="#fff" d="M258 165h17v10h-17z" data-name="Rectangle 706 copy 98"/><path fill="#fff" d="M285 165h17v10h-17z" data-name="Rectangle 706 copy 99"/><path fill="#00ffc4" d="M312 165h17v10h-17z" data-name="Rectangle 706 copy 100"/><path fill="#fff" d="M339 165h17v10h-17z" data-name="Rectangle 706 copy 101"/><path fill="#fff" d="M366 165h17v10h-17z" data-name="Rectangle 706 copy 102"/><path fill="#fff" d="M393 165h17v10h-17z" data-name="Rectangle 706 copy 103"/><path fill="#fff" d="M258 185h17v10h-17z" data-name="Rectangle 706 copy 104"/><path fill="#00ffc4" d="M285 185h17v10h-17z" data-name="Rectangle 706 copy 105"/><path fill="#00ffc4" d="M312 185h17v10h-17z" data-name="Rectangle 706 copy 106"/><path fill="#00ffc4" d="M339 185h17v10h-17z" data-name="Rectangle 706 copy 107"/><path fill="#fff" d="M366 185h17v10h-17z" data-name="Rectangle 706 copy 108"/><path fill="#fff" d="M393 185h17v10h-17z" data-name="Rectangle 706 copy 109"/><path fill="#fff" d="M258 205h17v10h-17z" data-name="Rectangle 706 copy 110"/><path fill="#fff" d="M285 205h17v10h-17z" data-name="Rectangle 706 copy 111"/><path fill="#00ffc4" d="M312 205h17v10h-17z" data-name="Rectangle 706 copy 112"/><path fill="#fff" d="M339 205h17v10h-17z" data-name="Rectangle 706 copy 113"/><path fill="#fff" d="M366 205h17v10h-17z" data-name="Rectangle 706 copy 114"/><path fill="#fff" d="M393 205h17v10h-17z" data-name="Rectangle 706 copy 115"/><path fill="#fff" d="M258 225h17v10h-17z" data-name="Rectangle 706 copy 116"/><path fill="#fff" d="M285 225h17v10h-17z" data-name="Rectangle 706 copy 117"/><path fill="#fff" d="M312 225h17v10h-17z" data-name="Rectangle 706 copy 118"/><path fill="#fff" d="M339 225h17v10h-17z" data-name="Rectangle 706 copy 119"/><path fill="#fff" d="M366 225h17v10h-17z" data-name="Rectangle 706 copy 120"/><path fill="#fff" d="M393 225h17v10h-17z" data-name="Rectangle 706 copy 121"/><path fill="#fff" d="M258 245h17v10h-17z" data-name="Rectangle 706 copy 122"/><path fill="#fff" d="M285 245h17v10h-17z" data-name="Rectangle 706 copy 123"/><path fill="#fff" d="M312 245h17v10h-17z" data-name="Rectangle 706 copy 124"/><path fill="#fff" d="M339 245h17v10h-17z" data-name="Rectangle 706 copy 125"/><path fill="#fff" d="M366 245h17v10h-17z" data-name="Rectangle 706 copy 126"/><path fill="#fff" d="M393 245h17v10h-17z" data-name="Rectangle 706 copy 127"/><path fill="#fff" d="M258 265h17v10h-17z" data-name="Rectangle 706 copy 128"/><path fill="#00ffc4" d="M285 265h17v10h-17z" data-name="Rectangle 706 copy 129"/><path fill="#fff" d="M312 265h17v10h-17z" data-name="Rectangle 706 copy 130"/><path fill="#fff" d="M339 265h17v10h-17z" data-name="Rectangle 706 copy 131"/><path fill="#fff" d="M366 265h17v10h-17z" data-name="Rectangle 706 copy 132"/><path fill="#fff" d="M393 265h17v10h-17z" data-name="Rectangle 706 copy 133"/><path fill="#fff" d="M258 285h17v10h-17z" data-name="Rectangle 706 copy 134"/><path fill="#00ffc4" d="M285 285h17v10h-17z" data-name="Rectangle 706 copy 135"/><path fill="#fff" d="M312 285h17v10h-17z" data-name="Rectangle 706 copy 136"/><path fill="#fff" d="M339 285h17v10h-17z" data-name="Rectangle 706 copy 137"/><path fill="#fff" d="M366 285h17v10h-17z" data-name="Rectangle 706 copy 138"/><path fill="#fff" d="M393 285h17v10h-17z" data-name="Rectangle 706 copy 139"/><path fill="#00ffc4" d="M258 305h17v10h-17z" data-name="Rectangle 706 copy 140"/><path fill="#00ffc4" d="M285 305h17v10h-17z" data-name="Rectangle 706 copy 141"/><path fill="#fff" d="M312 305h17v10h-17z" data-name="Rectangle 706 copy 142"/><path fill="#fff" d="M339 305h17v10h-17z" data-name="Rectangle 706 copy 143"/><path fill="#fff" d="M366 305h17v10h-17z" data-name="Rectangle 706 copy 144"/><path fill="#fff" d="M393 305h17v10h-17z" data-name="Rectangle 706 copy 145"/><path fill="#fff" d="M258 325h17v10h-17z" data-name="Rectangle 706 copy 146"/><path fill="#fff" d="M285 325h17v10h-17z" data-name="Rectangle 706 copy 147"/><path fill="#fff" d="M312 325h17v10h-17z" data-name="Rectangle 706 copy 148"/><path fill="#00ffc4" d="M339 325h17v10h-17z" data-name="Rectangle 706 copy 149"/><path fill="#00ffc4" d="M366 325h17v10h-17z" data-name="Rectangle 706 copy 150"/><path fill="#00ffc4" d="M393 325h17v10h-17z" data-name="Rectangle 706 copy 151"/><path fill="#fff" d="M258 345h17v10h-17z" data-name="Rectangle 706 copy 152"/><path fill="#fff" d="M285 345h17v10h-17z" data-name="Rectangle 706 copy 153"/><path fill="#fff" d="M312 345h17v10h-17z" data-name="Rectangle 706 copy 154"/><path fill="#00ffc4" d="M339 345h17v10h-17z" data-name="Rectangle 706 copy 155"/><path fill="#fff" d="M366 345h17v10h-17z" data-name="Rectangle 706 copy 156"/><path fill="#00ffc4" d="M393 345h17v10h-17z" data-name="Rectangle 706 copy 157"/><path fill="#fff" d="M258 365h17v10h-17z" data-name="Rectangle 706 copy 158"/><path fill="#fff" d="M285 365h17v10h-17z" data-name="Rectangle 706 copy 159"/><path fill="#fff" d="M312 365h17v10h-17z" data-name="Rectangle 706 copy 160"/><path fill="#fff" d="M339 365h17v10h-17z" data-name="Rectangle 706 copy 161"/><path fill="#00ffc4" d="M366 365h17v10h-17z" data-name="Rectangle 706 copy 162"/><path fill="#00ffc4" d="M393 365h17v10h-17z" data-name="Rectangle 706 copy 163"/><path fill="#fff" d="M258 385h17v10h-17z" data-name="Rectangle 706 copy 164"/><path fill="#fff" d="M285 385h17v10h-17z" data-name="Rectangle 706 copy 165"/><path fill="#fff" d="M312 385h17v10h-17z" data-name="Rectangle 706 copy 166"/><path fill="#fff" d="M339 385h17v10h-17z" data-name="Rectangle 706 copy 167"/><path fill="#fff" d="M366 385h17v10h-17z" data-name="Rectangle 706 copy 168"/><path fill="#fff" d="M393 385h17v10h-17z" data-name="Rectangle 706 copy 169"/><path fill="#fff" d="M258 405h17v10h-17z" data-name="Rectangle 706 copy 170"/><path fill="#fff" d="M285 405h17v10h-17z" data-name="Rectangle 706 copy 171"/><path fill="#fff" d="M312 405h17v10h-17z" data-name="Rectangle 706 copy 172"/><path fill="#fff" d="M339 405h17v10h-17z" data-name="Rectangle 706 copy 173"/><path fill="#fff" d="M366 405h17v10h-17z" data-name="Rectangle 706 copy 174"/><path fill="#fff" d="M393 405h17v10h-17z" data-name="Rectangle 706 copy 175"/><path fill="#fff" d="M258 425h17v10h-17z" data-name="Rectangle 706 copy 176"/><path fill="#fff" d="M285 425h17v10h-17z" data-name="Rectangle 706 copy 177"/><path fill="#fff" d="M312 425h17v10h-17z" data-name="Rectangle 706 copy 178"/><path fill="#fff" d="M339 425h17v10h-17z" data-name="Rectangle 706 copy 179"/><path fill="#fff" d="M366 425h17v10h-17z" data-name="Rectangle 706 copy 180"/><path fill="#fff" d="M393 425h17v10h-17z" data-name="Rectangle 706 copy 181"/><path fill="#fff" d="M258 445h17v10h-17z" data-name="Rectangle 706 copy 182"/><path fill="#fff" d="M285 445h17v10h-17z" data-name="Rectangle 706 copy 183"/><path fill="#fff" d="M312 445h17v10h-17z" data-name="Rectangle 706 copy 184"/><path fill="#fff" d="M339 445h17v10h-17z" data-name="Rectangle 706 copy 185"/><path fill="#fff" d="M366 445h17v10h-17z" data-name="Rectangle 706 copy 186"/><path fill="#fff" d="M393 445h17v10h-17z" data-name="Rectangle 706 copy 187"/><path fill="#fff" d="M258 465h17v10h-17z" data-name="Rectangle 706 copy 188"/><path fill="#fff" d="M285 465h17v10h-17z" data-name="Rectangle 706 copy 189"/><path fill="#fff" d="M312 465h17v10h-17z" data-name="Rectangle 706 copy 190"/><path fill="#fff" d="M339 465h17v10h-17z" data-name="Rectangle 706 copy 191"/><path fill="#fff" d="M366 465h17v10h-17z" data-name="Rectangle 706 copy 192"/><path fill="#fff" d="M393 465h17v10h-17z" data-name="Rectangle 706 copy 193"/><path fill="#00ffc4" d="M258 485h17v10h-17z" data-name="Rectangle 706 copy 194"/><path fill="#00ffc4" d="M285 485h17v10h-17z" data-name="Rectangle 706 copy 195"/><path fill="#fff" d="M312 485h17v10h-17z" data-name="Rectangle 706 copy 196"/><path fill="#fff" d="M339 485h17v10h-17z" data-name="Rectangle 706 copy 197"/><path fill="#fff" d="M366 485h17v10h-17z" data-name="Rectangle 706 copy 198"/><path fill="#fff" d="M393 485h17v10h-17z" data-name="Rectangle 706 copy 199"/><path fill="#fff" d="M258 505h17v10h-17z" data-name="Rectangle 706 copy 200"/><path fill="#fff" d="M285 505h17v10h-17z" data-name="Rectangle 706 copy 201"/><path fill="#fff" d="M312 505h17v10h-17z" data-name="Rectangle 706 copy 202"/><path fill="#fff" d="M339 505h17v10h-17z" data-name="Rectangle 706 copy 203"/><path fill="#fff" d="M366 505h17v10h-17z" data-name="Rectangle 706 copy 204"/><path fill="#fff" d="M393 505h17v10h-17z" data-name="Rectangle 706 copy 205"/><path fill="#fff" d="M258 525h17v10h-17z" data-name="Rectangle 706 copy 206"/><path fill="#fff" d="M285 525h17v10h-17z" data-name="Rectangle 706 copy 207"/><path fill="#fff" d="M312 525h17v10h-17z" data-name="Rectangle 706 copy 208"/><path fill="#fff" d="M339 525h17v10h-17z" data-name="Rectangle 706 copy 209"/><path fill="#fff" d="M366 525h17v10h-17z" data-name="Rectangle 706 copy 210"/><path fill="#fff" d="M393 525h17v10h-17z" data-name="Rectangle 706 copy 211"/><path fill="#fff" d="M258 545h17v10h-17z" data-name="Rectangle 706 copy 212"/><path fill="#fff" d="M285 545h17v10h-17z" data-name="Rectangle 706 copy 213"/><path fill="#fff" d="M312 545h17v10h-17z" data-name="Rectangle 706 copy 214"/><path fill="#fff" d="M339 545h17v10h-17z" data-name="Rectangle 706 copy 215"/><path fill="#00ffc4" d="M366 545h17v10h-17z" data-name="Rectangle 706 copy 216"/><path fill="#fff" d="M393 545h17v10h-17z" data-name="Rectangle 706 copy 217"/><path fill="#fff" d="M258 565h17v10h-17z" data-name="Rectangle 706 copy 245"/><path fill="#fff" d="M285 565h17v10h-17z" data-name="Rectangle 706 copy 246"/><path fill="#fff" d="M312 565h17v10h-17z" data-name="Rectangle 706 copy 247"/><path fill="#fff" d="M339 565h17v10h-17z" data-name="Rectangle 706 copy 248"/><path fill="#fff" d="M366 565h17v10h-17z" data-name="Rectangle 706 copy 249"/><path fill="#00ffc4" d="M393 565h17v10h-17z" data-name="Rectangle 706 copy 250"/></g><g data-name="Windows"><path fill="#fff" d="M442 45h10v10h-10z" data-name="Rectangle 706"/><path fill="#fff" d="M442 65h10v10h-10z" data-name="Rectangle 706 copy 218"/><path fill="#00ffc4" d="M442 85h10v10h-10z" data-name="Rectangle 706 copy 219"/><path fill="#00ffc4" d="M442 105h10v10h-10z" data-name="Rectangle 706 copy 220"/><path fill="#00ffc4" d="M442 125h10v10h-10z" data-name="Rectangle 706 copy 221"/><path fill="#00ffc4" d="M442 145h10v10h-10z" data-name="Rectangle 706 copy 222"/><path fill="#fff" d="M442 165h10v10h-10z" data-name="Rectangle 706 copy 223"/><path fill="#fff" d="M442 185h10v10h-10z" data-name="Rectangle 706 copy 224"/><path fill="#00ffc4" d="M442 205h10v10h-10z" data-name="Rectangle 706 copy 225"/><path fill="#00ffc4" d="M442 225h10v10h-10z" data-name="Rectangle 706 copy 226"/><path fill="#fff" d="M442 245h10v10h-10z" data-name="Rectangle 706 copy 227"/><path fill="#00ffc4" d="M442 265h10v10h-10z" data-name="Rectangle 706 copy 228"/><path fill="#fff" d="M442 285h10v10h-10z" data-name="Rectangle 706 copy 229"/><path fill="#fff" d="M442 305h10v10h-10z" data-name="Rectangle 706 copy 230"/><path fill="#fff" d="M442 325h10v10h-10z" data-name="Rectangle 706 copy 231"/><path fill="#fff" d="M442 345h10v10h-10z" data-name="Rectangle 706 copy 232"/><path fill="#fff" d="M442 345h10v10h-10z" data-name="Rectangle 706 copy 233"/><path fill="#fff" d="M442 365h10v10h-10z" data-name="Rectangle 706 copy 234"/><path fill="#fff" d="M442 385h10v10h-10z" data-name="Rectangle 706 copy 235"/><path fill="#fff" d="M442 405h10v10h-10z" data-name="Rectangle 706 copy 236"/><path fill="#fff" d="M442 425h10v10h-10z" data-name="Rectangle 706 copy 237"/><path fill="#00ffc4" d="M442 445h10v10h-10z" data-name="Rectangle 706 copy 238"/><path fill="#00ffc4" d="M442 465h10v10h-10z" data-name="Rectangle 706 copy 239"/><path fill="#00ffc4" d="M442 485h10v10h-10z" data-name="Rectangle 706 copy 240"/><path fill="#fff" d="M442 505h10v10h-10z" data-name="Rectangle 706 copy 241"/><path fill="#00ffc4" d="M442 525h10v10h-10z" data-name="Rectangle 706 copy 242"/><path fill="#fff" d="M442 545h10v10h-10z" data-name="Rectangle 706 copy 243"/><path fill="#fff" d="M442 565h10v10h-10z" data-name="Rectangle 706 copy 244"/></g></g><g data-name="Building #5"><g data-name="Rectangle 664"><path fill="#121214" d="M463.5 208.5h161v380h-161z"/><path d="M623 210v377H465V210h158m3-3H462v383h164V207z" fill="#fff"/></g><g data-name="Rectangle 664 copy 6"><path fill="#121214" d="M624.5 208.5h34v380h-34z"/><path d="M657 210v377h-31V210h31m3-3h-37v383h37V207z" fill="#fff"/></g><path fill="#121214" d="M465 587h158v3H465z" data-name="Rectangle 671"/><path fill="#121214" d="M626 587h31v3h-31z" data-name="Rectangle 671 copy"/><g data-name="Windows copy 2" fill="#fff"><path d="M465 245h144v10H465z" data-name="Rectangle 970 copy 18"/><path d="M465 265h144v10H465z" data-name="Rectangle 970 copy"/><path d="M465 285h144v10H465z" data-name="Rectangle 970 copy 2"/><path d="M465 305h144v10H465z" data-name="Rectangle 970 copy 3"/><path d="M465 325h144v10H465z" data-name="Rectangle 970 copy 4"/><path d="M465 345h144v10H465z" data-name="Rectangle 970 copy 5"/><path d="M465 365h144v10H465z" data-name="Rectangle 970 copy 6"/><path d="M465 385h144v10H465z" data-name="Rectangle 970 copy 7"/><path d="M465 405h144v10H465z" data-name="Rectangle 970 copy 8"/><path d="M465 425h144v10H465z" data-name="Rectangle 970 copy 9"/><path d="M465 445h144v10H465z" data-name="Rectangle 970 copy 10"/><path d="M465 465h144v10H465z" data-name="Rectangle 970 copy 11"/><path d="M465 465h144v10H465z" data-name="Rectangle 970 copy 12"/><path d="M465 485h144v10H465z" data-name="Rectangle 970 copy 13"/><path d="M465 505h144v10H465z" data-name="Rectangle 970 copy 14"/><path d="M465 525h144v10H465z" data-name="Rectangle 970 copy 15"/><path d="M465 545h144v10H465z" data-name="Rectangle 970 copy 16"/><path d="M465 565h144v10H465z" data-name="Rectangle 970 copy 17"/></g><g data-name="Windows copy 3"><path fill="#fff" d="M637 245h10v10h-10z" data-name="Rectangle 706"/><path fill="#fff" d="M637 265h10v10h-10z" data-name="Rectangle 706 copy 218"/><path fill="#00ffc4" d="M637 285h10v10h-10z" data-name="Rectangle 706 copy 219"/><path fill="#00ffc4" d="M637 305h10v10h-10z" data-name="Rectangle 706 copy 220"/><path fill="#fff" d="M637 325h10v10h-10z" data-name="Rectangle 706 copy 221"/><path fill="#00ffc4" d="M637 345h10v10h-10z" data-name="Rectangle 706 copy 222"/><path fill="#fff" d="M637 365h10v10h-10z" data-name="Rectangle 706 copy 223"/><path fill="#fff" d="M637 385h10v10h-10z" data-name="Rectangle 706 copy 224"/><path fill="#00ffc4" d="M637 405h10v10h-10z" data-name="Rectangle 706 copy 225"/><path fill="#00ffc4" d="M637 425h10v10h-10z" data-name="Rectangle 706 copy 226"/><path fill="#00ffc4" d="M637 445h10v10h-10z" data-name="Rectangle 706 copy 227"/><path fill="#fff" d="M637 465h10v10h-10z" data-name="Rectangle 706 copy 228"/><path fill="#fff" d="M637 485h10v10h-10z" data-name="Rectangle 706 copy 229"/><path fill="#fff" d="M637 505h10v10h-10z" data-name="Rectangle 706 copy 230"/><path fill="#fff" d="M637 525h10v10h-10z" data-name="Rectangle 706 copy 231"/><path fill="#fff" d="M637 545h10v10h-10z" data-name="Rectangle 706 copy 232"/><path fill="#fff" d="M637 545h10v10h-10z" data-name="Rectangle 706 copy 233"/><path fill="#fff" d="M637 565h10v10h-10z" data-name="Rectangle 706 copy 234"/></g></g><g data-name="Building #6"><path fill="#121214" fill-rule="evenodd" d="M465 79v128h110v-60L465 79z" data-name="Rectangle 664"/><g data-name="Rectangle 664 copy 7"><path fill="#121214" fill-rule="evenodd" d="M575.44 148.5l-105.35-68h31.48l108.22 68h-34.35z"/><path d="M501.14 82l103.45 65h-28.71l-100.7-65h26m.86-3H465l110 71h40L502 79z" fill="#fff"/></g><g data-name="Rectangle 664 copy 6"><path fill="#121214" d="M576.5 151.5h37v57h-37z"/><path d="M612 153v54h-34v-54h34m3-3h-40v60h40v-60z" fill="#fff"/></g><path fill="#121214" d="M578 151h34v3h-34z" data-name="Rectangle 702"/><path fill="#121214" d="M577 147h28v1h-28z" data-name="Rectangle 702 copy"/><g data-name="Windows" fill="#fff"><path d="M465 145h75v10h-75z" data-name="Rectangle 970"/><path d="M465 165h75v10h-75z" data-name="Rectangle 970 copy"/><path d="M465 185h75v10h-75z" data-name="Rectangle 970 copy 2"/></g></g></svg>