<svg xmlns="http://www.w3.org/2000/svg" viewBox="0 0 160.01 326.37"><path d="M144.97 47.83a38.25 38.25 0 0 0-22.18-34.18L103.1 4.6a38.32 38.32 0 0 0-46.6 12L6.85 82.37c-6.38 8.6-3.38 20.37 5.29 26.75a19.46 19.46 0 0 0 27.21-4.07l48.05-64.9 18.68 8.59.23 21.93a19.46 19.46 0 0 0 38.91-.42z" fill="#fff" fill-rule="evenodd" data-name="Составная фигура"/><path d="M146.12 47.82a39.41 39.41 0 0 0-22.85-35.21l-19.69-9a39.47 39.47 0 0 0-48 12.3L5.93 81.71a18.55 18.55 0 0 0-3.46 13.83 22.41 22.41 0 0 0 9 14.5 20.45 20.45 0 0 0 12.23 4h.23a20.46 20.46 0 0 0 16.35-8.34l47.5-64.15 17.17 7.9.23 21.21a20.6 20.6 0 0 0 41.19-.45zm-7.27 35.43a18.31 18.31 0 0 1-31.38-12.59L107.22 48l-20.17-9.27-48.58 65.64a18.33 18.33 0 0 1-25.61 3.83 20.14 20.14 0 0 1-8-13 16.05 16.05 0 0 1 3-12.17l49.61-65.8a37.14 37.14 0 0 1 29.83-15 36.76 36.76 0 0 1 15.38 3.36l19.68 9a37.09 37.09 0 0 1 21.52 33.15l.24 22.42a18.12 18.12 0 0 1-5.27 13.09z" fill="#121214" fill-rule="evenodd" data-name="Составная фигура"/><path d="M138.82 168.81c-2.59-7-7.57-15.28-14.07-23.89-23.12-30.7-65.35-66.11-86.16-68.45-4.9-.55-36.64 23.66-36.64 23.66l29.69 133.93v30.65h102.68v-34.79a43.89 43.89 0 0 0 2.5-4.64 73.07 73.07 0 0 0 2-56.47z" fill="#fff" fill-rule="evenodd" data-name="Составная фигура"/><path d="M139.89 168.37c-2.54-6.89-7.32-15-14.22-24.18-22.5-29.82-65.38-66.43-86.95-68.82-5.08-.54-32.1 19.8-37.47 23.89l-.58.45 29.8 134.48v31.66h105v-35.59a48.72 48.72 0 0 0 2.39-4.49 74.69 74.69 0 0 0 2.03-57.4zm-4.11 56.38a44.6 44.6 0 0 1-2.42 4.51l-.19.28v34H32.79v-29.6L3.22 100.6c15.25-11.62 32.47-23.23 35.25-22.99 21 2.36 63.16 38.49 85.38 68 6.67 8.84 11.48 17 13.9 23.59a72.45 72.45 0 0 1-1.97 55.59z" fill="#121214" fill-rule="evenodd" data-name="Составная фигура"/><path d="M145.47 73.37c-12.16-18.46-18.71-34.36-50-34-2.15 1.66-5.6 1-8.5 2a86.34 86.34 0 0 0-9.5 4c-17 8.45-35 16.56-52 25-8.24 4.1-17.35 5.91-22 13.5-3.18 5.18-1.81 11.6-1 17.5l.5.5a147.54 147.54 0 0 0 22-3.5c7.06-1.71 14.11-1.44 20.5-3 6.8-1.66 13.86-1.5 20-3h4.5c5.35-1.7 11.06-5.54 16-8 4.5-2.25 9.66-3.07 13.5-6 6.33.64 7.31 6.72 10 11 5.95 9.47 15.2 28.75 32.5 20 3.32-1.68 6.46-3.14 8.5-6 8-11.16.16-22.17-5-30z" fill="#fff" fill-rule="evenodd"/><path d="M151.84 82.04l-13.1-21.16a45.13 45.13 0 0 0-57.43-17.14L11.9 76.09a20.54 20.54 0 0 0-10 27.34 1.15 1.15 0 0 0 2.07-1 18.27 18.27 0 0 1 8.85-24.3l69.41-32.35a42.85 42.85 0 0 1 54.51 16.27l13.1 21.17a18.27 18.27 0 0 1-6 25.16 18.33 18.33 0 0 1-25.19-5.95l-13.1-21.16a6.18 6.18 0 0 0-7.88-2.35L69.9 91.86a1.15 1.15 0 1 0 1 2.07l27.77-12.94a3.91 3.91 0 0 1 5 1.48l13.1 21.17a20.593 20.593 0 1 0 35.05-21.63z" fill="#121214" fill-rule="evenodd" data-name="Составная фигура"/><path d="M155.47 110.37c-1-3.91-.7-7-2-10.5-6.28-17-20.18-26.72-44-26.5-3.26 2.84-14.53 3.48-19.5 5-12.64 3.88-27 6.8-39.5 11-6.56 2.21-13.2 2.59-19 5-8.4 3.49-11.65 7.31-14 17-.27 1.11-.72 2.8 0 4 .55 4.55 15.44 7.27 20 9 3.63 1.38 8.26 3.83 12 5 4.5 1.41 10-2 13-3 11.11-3.67 22.49-5.47 33-9 5.47-1.84 14.4-1.95 18.5-5 1.16.11 1.41.1 2 .5 3.15 4.21 2.58 14.34 4.5 20 4.45 13.13 24.92 19.75 34.5 6.5 5.86-8.1 3-19.37.5-29z" fill="#fff" fill-rule="evenodd" data-name="new_vector_shape_done"/><path d="M159.56 122.92l-3.83-18.05a41.15 41.15 0 0 0-51.06-31.13L32.73 92.47a23.74 23.74 0 0 0-13.26 9.68 19.2 19.2 0 0 0-2.89 15.8 1.14 1.14 0 0 0 1.4.8 1.16 1.16 0 0 0 .81-1.41 16.89 16.89 0 0 1 2.59-13.92 21.36 21.36 0 0 1 12-8.74l71.94-18.73a38.85 38.85 0 0 1 48.15 29.42l3.85 18a18.28 18.28 0 0 1-14.12 21.67 18.82 18.82 0 0 1-3.81.4 18.37 18.37 0 0 1-17.92-14.47l-3.83-18a2.14 2.14 0 0 0-1-1.46 2.21 2.21 0 0 0-1.75-.25l-63.75 17.37a1.14 1.14 0 0 0 .6 2.2l63.73-17.46 3.83 18.06a20.59 20.59 0 0 0 24.42 15.86 20.59 20.59 0 0 0 15.88-24.39z" fill="#121214" fill-rule="evenodd" data-name="Составная фигура"/><path d="M128.97 112.37c-4.35-1.5-10.4-1.08-16-1-3.85 2.76-10.69 2.45-15.5 4-10.23 3.3-21.89 5.61-32 9-3.55 1.19-6.6.7-10 2a23 23 0 0 0-10.5 9c-1 1.84-1.14 4.5-2.5 6a39.59 39.59 0 0 0 1 10.5c12.53 2.7 25.89 4.37 38 7.5 4.26 1.1 10.35.11 13-2h.5c-.48 3.25-2 6.94-1.5 10 2.05 11.59 5.33 14.62 15.5 18 1.24.41 3.93 1.74 6.5 1 6-1.73 10.6-5.37 15.5-8 7.64-4.1 14.4-8 18.5-15.5 12.17-22.22-3.2-44.5-20.5-50.5z" fill="#fff" fill-rule="evenodd" data-name="new_vector_shape_done"/><path d="M121.21 150.21a1.14 1.14 0 0 0-1.41-.8l-24.52 6.72a1.15 1.15 0 0 0 .3 2.25 1.65 1.65 0 0 0 .31 0l24.52-6.72a1.15 1.15 0 0 0 .8-1.45zM86.69 27.74a1.15 1.15 0 0 0-2.27.34l1.85 12.29a1.16 1.16 0 0 0 1.13 1h.17a1.16 1.16 0 0 0 1-1.31z" fill="#121214" fill-rule="evenodd" data-name="Составная фигура"/><path d="M154.47 142.84a35.84 35.84 0 0 0-46-31.25l-51.1 13.39a21.43 21.43 0 0 0-15 27.22 1.15 1.15 0 0 0 1.44.74 1.14 1.14 0 0 0 .74-1.44 19.14 19.14 0 0 1 13.41-24.31l51.2-13.39a33.5 33.5 0 0 1 25.73 61.49l-13.47 7.35a18.29 18.29 0 0 1-24.82-24.86l1.34-2.45-11.78 3.54a1.144 1.144 0 1 0 .66 2.19l6.65-2a20.58 20.58 0 0 0 19.18 28.11c.58 0 1.17 0 1.76-.07a20.43 20.43 0 0 0 8.1-2.45l13.48-7.35a35.79 35.79 0 0 0 18.48-34.46z" fill="#121214" fill-rule="evenodd" data-name="Составная фигура"/><path fill="#00ffc4" d="M22.22 259.52h123.43v33.62H22.22z" data-name="Составная фигура"/><path d="M21.47 258.37v47h126v-47zm123.7 44H23.75v-41h121.42z" fill="#121214" fill-rule="evenodd" data-name="Составная фигура"/><path fill="#121214" d="M12.45 282.38h143.02v43.99H12.45z" data-name="Составная фигура"/><path d="M137.97 299.37a5.5 5.5 0 1 0 5.5 5.5 5.5 5.5 0 0 0-5.5-5.5z" fill="#fff" fill-rule="evenodd" data-name="Составная фигура"/><path d="M136.47 209.37c-.72-2.54-.16-3.75-1-6-5.56-14.95-16.61-25.81-27.5-35.5-3.44-3.06-7.93-5.62-10.5-9.5-.5 0-7.5 2-8 2 1.92 4.58-6.84 8.35-5 13 7.24 18.32 31.09 35.92 38 54 2.45 6.42 2.72 14.05 5 20 1.48 3.87-2.25 6.91 0 10 0 .33 3 .67 3 1h5c0-12.21.73-20.16 3-29.5 1.63-6.71-.73-15-2-19.5z" fill="#fff" fill-rule="evenodd" data-name="new_vector_shape_done"/><path d="M120.94 179.21c-15.89-15.57-24.54-22.79-24.62-22.86a1.15 1.15 0 1 0-1.47 1.76c.09.07 8.67 7.24 24.49 22.73 28.45 27.89 14.06 63.33 13.92 63.68l-.09.21v14.79a1.15 1.15 0 0 0 2.29 0v-14.34c1.21-3.14 13.86-38.16-14.52-65.97z" fill="#121214" fill-rule="evenodd" data-name="Составная фигура"/></svg>