<svg xmlns="http://www.w3.org/2000/svg" viewBox="0 0 759.83 713.45"><path fill="#121214" fill-rule="evenodd" d="M654.24 547.38L552.52 712.55H758.2L654.24 547.38z" data-name="Составная фигура"/><path d="M654.19 545.67L550.91 713.45h208.91zm0 3.41l102.38 162.57H554.13z" fill="#121214" fill-rule="evenodd" data-name="Составная фигура"/><path d="M608.35 320.51a33.73 33.73 0 0 0-27.26-13.82 33 33 0 0 0-6.41.62c0-.89.06-1.77.06-2.65a69 69 0 0 0-33.55-59.24 69.09 69.09 0 0 0-102.81 43.67v.13a44.31 44.31 0 0 0-5-.31 42.65 42.65 0 0 0-37.24 63.48 42.65 42.65 0 0 0 34.44 21.73v.11h150.51a33.77 33.77 0 0 0 27.26-53.72z" fill="#fff" fill-rule="evenodd" data-name="Составная фигура"/><path d="M609.35 319.77a35.19 35.19 0 0 0-28.26-14.33 33.52 33.52 0 0 0-5.11.38v-1.16a70.32 70.32 0 0 0-114.4-54.78 70.64 70.64 0 0 0-24.21 38c-1.4-.13-2.77-.2-4.09-.2a43.9 43.9 0 0 0-4.04 87.65v.2h151.85a35.07 35.07 0 0 0 35-35 34.68 34.68 0 0 0-6.74-20.76zm-28.26 53.21H431.74l-1.17-.1a41.4 41.4 0 0 1 2.72-82.72 43.94 43.94 0 0 1 4.9.3h1.11l.27-1.06.05-.21a67.85 67.85 0 0 1 100.92-42.74 67.34 67.34 0 0 1 32.95 58.17c0 .87 0 1.73-.06 2.6v1.58l1.54-.31a32.54 32.54 0 0 1 32.42 12.72 32.2 32.2 0 0 1 6.28 19.21 32.56 32.56 0 0 1-32.58 32.56z" fill="#121214" fill-rule="evenodd" data-name="Составная фигура"/><g data-name="Cloud" fill-rule="evenodd"><path d="M248.19 398.45a21.68 21.68 0 0 0-21.65-8.49v-1.7a44.36 44.36 0 0 0-21.58-38.09 44.41 44.41 0 0 0-66.1 28.08.29.29 0 0 0 0 .08 29.08 29.08 0 0 0-3.25-.2 27.43 27.43 0 0 0-23.95 40.82 27.43 27.43 0 0 0 22.15 14v.07h96.88a21.72 21.72 0 0 0 17.5-34.57z" fill="#fff" data-name="Составная фигура"/><path d="M249.19 397.71a23.07 23.07 0 0 0-18.5-9.38 22.4 22.4 0 0 0-2.83.18v-.23A45.66 45.66 0 0 0 137.95 377c-.78-.06-1.55-.1-2.29-.1a28.68 28.68 0 0 0-2.29 57.26 1.16 1.16 0 0 0 .49.1h96.83a23 23 0 0 0 23-23 22.71 22.71 0 0 0-4.5-13.55zm-18.53 34h-96.4a1.13 1.13 0 0 0-.32-.06 26.18 26.18 0 0 1 1.72-52.3 28 28 0 0 1 3.1.19 1.34 1.34 0 0 0 1.37-1v-.05a43.16 43.16 0 0 1 85.21 9.73v1.66a1.26 1.26 0 0 0 1.49 1.27 20.17 20.17 0 0 1 3.88-.38 20.55 20.55 0 0 1 16.48 8.42 20.46 20.46 0 0 1-16.52 32.55z" fill="#121214" data-name="Составная фигура"/></g><g data-name="Mountain" fill-rule="evenodd"><path d="M524.12 497.33c-11.76-17.67-23.77-35.62-35.67-53.35-66.12-98.4-129.2-190.15-130.51-190.15a7.8 7.8 0 0 0-7 4.41l-76.37 108.78-1.34 1.9-32-5a7.8 7.8 0 0 0-13.22 1.5l-61.82 95.05L.75 712.55h668.11s-71.32-104.92-144.74-215.22z" fill="#121214" data-name="Составная фигура"/><path d="M670.56 713.45l-1-1.41c-.72-1-72.16-106.17-144.74-215.18-11.17-16.78-23.17-34.73-35.67-53.35-30.92-46-63.57-94.15-89.57-132-40.22-58.57-41-58.57-41.7-58.57a8.72 8.72 0 0 0-7.8 4.86l-76.3 108.71-1 1.45-31.09-4.89a8.7 8.7 0 0 0-14.49 1.9l-61.8 95L0 712.06l.29.19v1.2zM166.94 460.96l61.84-95.07.07-.11a6.9 6.9 0 0 1 11.69-1.33l.21.28 32.89 5.17 78-111.14.07-.13a6.72 6.72 0 0 1 2.47-2.79 6.83 6.83 0 0 1 3.43-1.1c4.5 4.93 64.35 91.92 130.08 189.77 12.5 18.63 24.5 36.57 35.68 53.35 68.03 102.17 135.06 200.92 143.82 213.79H2.42z" fill="#121214" data-name="Составная фигура"/><path d="M357.4 255.25a6.39 6.39 0 0 0-2.94 1 6.26 6.26 0 0 0-2.29 2.58l-.05.11-78.25 111.5-33.39-5.25-.34-.44a6.33 6.33 0 0 0-5-2.46 6.13 6.13 0 0 0-.74.05 6.38 6.38 0 0 0-5.07 3.65v.09l-61.45 94.35 11.83 16.59 40-55.37 19.27 21.11 19-20 57.42 60.94 44.44-54.62 47.35 32.31 17.06-20.35 15.08 12.07 19.3-27.78 25.33 14.47c-63.57-94.47-121.14-178.2-126.56-184.55z" fill="#fff" data-name="Составная фигура"/></g><path d="M305.69 48.33h-5.5a58.05 58.05 0 0 1-6 5.5 4.29 4.29 0 0 1-.5 2.5v42.5c-5.5-1.61-8.92-8.5-13.5-11.5l-.5-.5c-1.83 3.85-4.71 14-7.5 16.5.63 3.23 3.09 3.63 5 5.5 4.14 4.06 10.64 12.32 16 14.5 1.68.68 5.4 1.92 8 1 3.31-1.16 7.25-3.69 9-6.5.92-1.48.93-3.26 2-4.5v-58.5c-1.19-3.02-4.57-4.24-6.5-6.5z" fill="#fff" fill-rule="evenodd"/><path d="M302.92 47.26a10.2 10.2 0 0 0-10.19 10.19v39.88l-12.32-11.51a1.132 1.132 0 1 0-1.54 1.66l16.12 15.05V57.45a7.93 7.93 0 0 1 15.85 0v53.08a12.37 12.37 0 0 1-20.82 9l-17.05-15.93a1.13 1.13 0 1 0-1.54 1.65l17 15.94a14.64 14.64 0 0 0 24.64-10.7V57.45a10.2 10.2 0 0 0-10.15-10.19z" fill="#121214" fill-rule="evenodd" data-name="Составная фигура"/><path d="M351.19 172.33c-6.44-8.89-19.74-8.37-32-5-17.52 4.81-38.09 6.09-52.5 14-2.42 1.33-4.31 3.92-6.5 5.5.07 3.42.45 8-1 10a16.56 16.56 0 0 0 .5 5c10.55 1.93 21.83-1.16 30-3.5 9.08-2.61 17.44-2.38 26.5-5 4.13-1.2 8.84-2.95 14-3-.1 11.47.24 25.27-2 35.5v11.5c-.66 3-2.12 17.36-1 19.5.2 4.54 2.54 3.48 5 5.5h5l1.5-5.5v-1c2 1.37 6.08 1.85 8 3.5a12.34 12.34 0 0 0 4-.5l3.5-58.5c0-11.45 2.77-20-3-28z" fill="#fff" fill-rule="evenodd" data-name="new_vector_shape_done"/><path d="M355.34 175.96c-3.76-7.62-9.62-12.8-21.25-12.62-.32.23-.73.05-1.22.17-1.12.28-2.36.37-3.57.69-2.93.78-6.23 1.09-9.14 1.9-.85.24-1.52.13-2.35.35-5.24 1.39-11 1.84-16.21 3.29l-1.48.17c-1.18.31-2.64.54-3.83.86l-1.48.18c-1.79.47-3.86.74-5.66 1.21l-1.48.17c-2.55.73-5.19 1.18-7.67 2.08a105.62 105.62 0 0 0-14.45 6c-3 1.61-6.34 3.46-7.23 7.1a3.54 3.54 0 0 0 .17 1.64 12.5 12.5 0 0 1-.17 4c-.25 1-.45 2.23-.7 3.2-.16.61 0 1-.17 1.64a5.8 5.8 0 0 0-.18 2.51 3.37 3.37 0 0 0 1.83 2.25c1.22.51 3.3.17 5 .17 3.09 0 6.48.24 9.14-.34.87-.19 1.52 0 2.35-.18 6.28-1.49 12.75-2.24 18.82-4 .52-.15.86 0 1.39-.17 1.87-.53 4.06-.85 5.92-1.38.78-.23 1.4-.14 2.18-.35 3-.79 6.28-1.23 9.23-2.07.78-.23 1.41-.13 2.18-.35 3-.84 6.28-1.23 9.23-2.08 1.21-.34 4.05-.45 4.88-1a1.09 1.09 0 0 1 .43.08l-.69 11.33-.09 3.12c-.49 2.27 0 5.07-.52 7.35-.23 1 0 2.15-.18 3v2c-.27 1.25-.07 3-.34 4.24v1.9c-.28 1.26-.08 3-.35 4.24v2c-.2.88.05 2-.18 3-.47 2.19-.31 5.32-.52 7.62q-.3 6.09-.61 12.19c-.49 2.25-.21 5.46.7 6.92 1.12 1.8 3.09 2.38 5.48 2.94 1 .24 3-.1 3.75.35h2.26c.62-.35 1.31-3.9 1.4-4.93l.09-.09c3.55.06 5.76 1.35 8.44 2.25a3.52 3.52 0 0 0 3.75-.86c1.32-1.81.55-5.18 1.13-7.79v-1.21a22.79 22.79 0 0 0 .26-3.29v-1.73c.5-2.27 0-5.07.53-7.35.22-1 0-2.14.17-3 .23-1.05 0-2.2.17-3.11l.18-5c.2-.91-.06-2.06.17-3.11s-.05-2.06.18-3.12c.49-2.27 0-5.07.52-7.35.23-1 0-2.2.17-3.11s0-2.15.18-3c.06-1.67.11-3.34.17-5 .5-2.28 0-5.07.52-7.35v-1.9c.29-1.29.07-3 .35-4.33V187c.82-3.82-.4-8.61-1.6-11.04zm-.87 13.07v1.9c-.27 1.26-.07 3-.34 4.24v2c-.2.88 0 2-.18 3-.5 2.28 0 5.08-.52 7.36l-.18 5c-.2.92.06 2.06-.17 3.12-.5 2.28 0 5.08-.52 7.35-.23 1.05 0 2.21-.18 3.11-.13.6 0 1.42-.08 1.91-.31 1.4 0 3-.27 4.32 0 1.68-.11 3.35-.17 5-.5 2.27 0 5.07-.52 7.35-.23 1.06 0 2.2-.18 3.12s0 2.14-.17 3v2c-.42 2 .05 4.18-.87 5.63a7.48 7.48 0 0 1-2.35-.7 21 21 0 0 0-6.36-1.73 5.18 5.18 0 0 0-.61-2.85c-.59-.16-1.25-.4-1.74.09s-.54 1.43-.79 2.24a30.88 30.88 0 0 0-1.22 5.37l-.08.08c-2.68-.06-6.23-.18-7.58-1.64-.7-.75-1.25-3.52-.87-5.28.19-.88-.05-2 .17-3 .5-2.28 0-5.08.53-7.36v-2c.49-2.27 0-5.07.52-7.35.23-1 0-2.2.17-3.11s0-2.15.18-3c.23-1.05 0-2.21.17-3.11.06-1.68.12-3.35.17-5 .5-2.28 0-5.07.53-7.35.23-1.06 0-2.2.17-3.12v-1.9c.28-1.26.07-3 .35-4.24v-2c.27-1.25.07-3 .35-4.24v-1.91c.2-.92-.06-2.06.17-3.11a20 20 0 0 0 .26-4.07 19.79 19.79 0 0 0-3.57.78c-1.65.47-3.33.6-4.88 1-1.31.37-2.5.32-3.83.69-3.2.9-6.81 1.33-10 2.25-2.12.6-4.15.61-6.27 1.21-5.61 1.58-11.74 2.21-17.34 3.81-1.57.44-3 .42-4.61.86a57.25 57.25 0 0 1-15.77 1.82c-1.49 0-5.28.31-6.18-.09a6.71 6.71 0 0 1 .08-3.63c.37-1.39.54-3 .88-4.5.11-.5 0-1.25.08-1.64.24-1.12-.53-2.44-.08-3.46a6.24 6.24 0 0 1 1.74-2.17c6.94-5.2 16.07-7.87 25.6-10.55 1.43-.4 2.75-.32 4.19-.69 5-1.28 10.37-1.79 15.32-3.12.84-.22 1.51-.12 2.36-.34 2.82-.73 5.89-1 8.79-1.73 2.37-.63 5.05-1 7.41-1.56.57-.15.9 0 1.48-.17 3.88-1 9.31-2.11 13.58-.69 5.32 1.76 9.7 5.15 11.85 10 .38.86.53 1.65.87 2.6a21.77 21.77 0 0 1 .51 10.2z" fill="#121214" fill-rule="evenodd" data-name="new_vector_shape_done"/><path d="M274.31 77.4h-27.66a15.43 15.43 0 0 0-15.46 15.43v84.5l58.35-3.77v-81a15.24 15.24 0 0 0-15.23-15.16z" fill="#121214" fill-rule="evenodd" data-name="Составная фигура"/><path d="M274.31 76.26h-27.66a16.59 16.59 0 0 0-16.58 16.57v85.75l60.63-3.91v-82a16.4 16.4 0 0 0-16.39-16.41zm14.12 96.28l-56.09 3.62V92.83a14.32 14.32 0 0 1 14.31-14.3h27.66a14.13 14.13 0 0 1 14.12 14.11zm84.99 77.79a4.31 4.31 0 0 0-4.11-3.24l-20.25-.33-22 5.64 2.74 10.69a2.79 2.79 0 0 0 3.41 2l37.09-9.51a4.32 4.32 0 0 0 3.12-5.25z" fill="#121214" fill-rule="evenodd" data-name="Составная фигура"/><path d="M374.52 250.08a5.46 5.46 0 0 0-5.19-4.09l-20.4-.34-23.24 6 3 11.78a4 4 0 0 0 3.82 3 3.72 3.72 0 0 0 1-.13l37.09-9.52a5.45 5.45 0 0 0 3.92-6.63zm-2.54 3a3.14 3.14 0 0 1-2 1.46l-37.09 9.52a1.67 1.67 0 0 1-2-1.2l-2.46-9.59 20.76-5.34 20.1.32a3.2 3.2 0 0 1 3 2.39 3.16 3.16 0 0 1-.31 2.42z" fill="#121214" fill-rule="evenodd" data-name="Составная фигура"/><path d="M251.64 64.85v9.56a8.44 8.44 0 0 0 0 .87 10.64 10.64 0 0 0 10.6 9.77h7.77a4.83 4.83 0 0 0 4.83-4.83V68.38z" fill="#fceddb" fill-rule="evenodd" data-name="Составная фигура"/><path d="M274.88 69.33l-23.24-3.57v8.66a8.44 8.44 0 0 0 0 .87 24.51 24.51 0 0 0 11.67 2.93h4a20.6 20.6 0 0 0 7.52-1.41h.08v-7.48z" fill="#fff" fill-rule="evenodd" data-name="Составная фигура"/><path d="M250.55 63.54v11.87a11.84 11.84 0 0 0 11.74 10.82h9.36a4.36 4.36 0 0 0 4.36-4.36V67.41zm23.24 18.29a2.1 2.1 0 0 1-2.1 2.09h-9.36a9.56 9.56 0 0 1-9.48-8.74v-9.01l21 3.18z" fill="#121214" fill-rule="evenodd" data-name="Составная фигура"/><path d="M285.67 174.86s.2-.11-45.48 4.47c-10.7 1.07-9 3-9 3l4 10 22.85 12.31 4.45-3.37 39.18-29z" fill="#fff" fill-rule="evenodd" data-name="Составная фигура"/><path d="M289.68 172.23l-59.61 6.47v2.45a20 20 0 0 0 4.37 12.42 1.18 1.18 0 0 0 .89.42 1.12 1.12 0 0 0 .71-.25 1.14 1.14 0 0 0 .17-1.6 17.36 17.36 0 0 1-3.87-11v-.42l57.59-6.24a1.13 1.13 0 0 0 1-1.25 1.15 1.15 0 0 0-1.25-1z" fill="#121214" fill-rule="evenodd" data-name="Составная фигура"/><path d="M251.13 178.58a1.14 1.14 0 0 0-1.14 1.13 12.07 12.07 0 0 1-3.54 8.57l-1.6 1.61a1.131 1.131 0 0 0 1.6 1.6l1.6-1.61a14.26 14.26 0 0 0 4.21-10.17 1.14 1.14 0 0 0-1.13-1.13zm28.85 182.75l-19.53-5.36h-22.71v11a2.81 2.81 0 0 0 2.81 2.8h38.29a4.32 4.32 0 0 0 1.14-8.48z" fill="#121214" fill-rule="evenodd" data-name="Составная фигура"/><path d="M280.28 360.21l-19.53-5.36h-24.14v12.17a3.94 3.94 0 0 0 3.94 3.93h38.29a5.45 5.45 0 0 0 1.44-10.7zm-1.44 8.44h-38.29a1.67 1.67 0 0 1-1.67-1.67v-9.9h21.42l19.38 5.31a3.19 3.19 0 0 1-.84 6.26z" fill="#121214" fill-rule="evenodd" data-name="Составная фигура"/><path d="M262.69 316.33v-102c0-3.19.86-9.3-.5-11.5-1.13-2.19-3.55-1.59-6-2.5-6.19-2.3-14.11-6.2-21-7v148.5c0 4.76-.62 11.31 1 14.5h26c1.42-12.23.5-26.91.5-40z" fill="#fff" fill-rule="evenodd" data-name="new_vector_shape_done"/><path d="M262.49 200.9a1.14 1.14 0 0 0-1.13 1.13v152.78h-24.7V193.45a1.14 1.14 0 0 0-2.27 0v163.63h29.24v-155a1.14 1.14 0 0 0-1.14-1.18z" fill="#121214" fill-rule="evenodd" data-name="Составная фигура"/><path d="M251.64 72.04a1.54 1.54 0 0 0-1.53 1.53v3.83l18.15 18.05a.34.34 0 0 0 .58-.23V82z" fill="#fff" fill-rule="evenodd" data-name="Составная фигура"/><path d="M251.95 70.91h-.31a2.66 2.66 0 0 0-2.66 2.66v4.3l18.48 18.39a1.48 1.48 0 0 0 1 .43 1.49 1.49 0 0 0 1.47-1.47V81.33zm15.75 22.42l-16.45-16.38V73.6a.39.39 0 0 1 .19-.34l16.26 9.43z" fill="#121214" fill-rule="evenodd" data-name="Составная фигура"/><rect x="268.84" y="82" width="6.65" height="8" rx="1.62" ry="1.62" fill="#f1a34e" data-name="Составная фигура"/><path d="M273.87 80.87h-3.42a2.75 2.75 0 0 0-2.75 2.75v4.77a2.75 2.75 0 0 0 2.75 2.75h3.42a2.75 2.75 0 0 0 2.75-2.75v-4.77a2.75 2.75 0 0 0-2.75-2.75zm.48 7.52a.48.48 0 0 1-.48.48h-3.42a.48.48 0 0 1-.48-.48v-4.77a.48.48 0 0 1 .48-.48h3.42a.48.48 0 0 1 .48.48z" fill="#5b141a" fill-rule="evenodd" data-name="Составная фигура"/><path d="M277.51 73.22a.73.73 0 0 0-.71-.6h-1.92v4l1.4 18.31L278.84 82z" fill="#fff" fill-rule="evenodd" data-name="Составная фигура"/><path d="M278.63 73.05a1.84 1.84 0 0 0-1.83-1.57h-3.07l.06 5.15 2 26.64 4.23-21.24zm-1.81 13.54l-.77-10v-2.82h.43l1.28 8.23z" fill="#5b141a" fill-rule="evenodd" data-name="Составная фигура"/><path d="M293.19 19.33c-5.36-8.27-23.4-6.23-37-6-1 .87-1.54.31-3 1-3.83 1.82-6.68 6.19-8 10.5v14.5c0 19.48 5.21 26.87 19.5 32 3.94 1.42 12.92 1.71 17 0 13.14-5.51 13.5-15.91 13.5-34.5 0-6.56.56-13.5-2-17.5z" fill="#fff" fill-rule="evenodd" data-name="new_vector_shape_done"/><path fill="#f5d4ba" d="M285.64 33.22h9.33v7.36h-9.33z" data-name="Составная фигура"/><path d="M282.31 12.44h-24a13.78 13.78 0 0 0-13.82 13.79v21.2a25.81 25.81 0 0 0 25.81 25.81h4a21.81 21.81 0 0 0 21.79-21.78V26.23a13.8 13.8 0 0 0-13.78-13.79zm11.52 39a19.53 19.53 0 0 1-19.52 19.51h-4a23.54 23.54 0 0 1-23.55-23.52v-15a.28.28 0 0 0 0-.09v-6.11a11.52 11.52 0 0 1 11.52-11.53h24a11.53 11.53 0 0 1 11.55 11.53z" fill="#121214" fill-rule="evenodd" data-name="Составная фигура"/><path d="M285.64 38.58a1.14 1.14 0 0 0-1.14 1.14v8.36a2.59 2.59 0 0 1-2.59 2.59 1.14 1.14 0 0 0 0 2.27 4.87 4.87 0 0 0 4.86-4.86v-8.36a1.14 1.14 0 0 0-1.13-1.14z" fill="#5b141a" fill-rule="evenodd" data-name="Составная фигура"/><path d="M290.59 1.14h-26.31a21.65 21.65 0 0 0-21.66 21.65v15l5.21 4.37a3.15 3.15 0 0 0 5.9-.75l1.88-8.68a8.25 8.25 0 0 1 8.07-6.5h26.91a12.55 12.55 0 1 0 0-25.1z" fill="#121214" fill-rule="evenodd" data-name="Составная фигура"/><path d="M290.59 0h-26.31a22.82 22.82 0 0 0-22.8 22.79v15.54l5.45 4.57a4.25 4.25 0 0 0 3.69 2.14 5.44 5.44 0 0 0 .57 0 4.26 4.26 0 0 0 3.65-3.35l1.87-8.68a7.17 7.17 0 0 1 7-5.61h26.88a13.69 13.69 0 1 0 0-27.37zm0 25.1h-26.91a9.45 9.45 0 0 0-9.18 7.4l-1.88 8.68a2 2 0 0 1-3.78.48l-.1-.21-5-4.18V22.79a20.56 20.56 0 0 1 20.61-20.52h26.24a11.42 11.42 0 1 1 0 22.83z" fill="#121214" fill-rule="evenodd" data-name="Составная фигура"/><path d="M248.19 38.33l-4.5-.5c-1.39 1.19-3.1 2.48-4.5 3.5-.1 5.79 1.2 6.12 3.5 9 6.63.11 5.27-2.73 8.5-5.5-.08-4.04-1.45-4.24-3-6.5z" fill="#fff" fill-rule="evenodd" data-name="new_vector_shape_done"/><path d="M245.13 36.79a7.3 7.3 0 1 0 3.61 13.64 1.146 1.146 0 0 0-1.12-2 5 5 0 1 1 2.57-4.34 1.14 1.14 0 0 0 2.27 0 7.32 7.32 0 0 0-7.33-7.3zm42.52 21.1h-8.68a8 8 0 0 1-4.49-1.38 1.14 1.14 0 1 0-1.29 1.88 10.29 10.29 0 0 0 5.76 1.77h8.68a1.14 1.14 0 1 0 0-2.27z" fill="#121214" fill-rule="evenodd" data-name="Составная фигура"/><path d="M273.33 37.49a3.09 3.09 0 1 0 3.09 3.09 3.08 3.08 0 0 0-3.09-3.09z" fill="#fff" fill-rule="evenodd" data-name="Составная фигура"/><path d="M273.33 36.33a4.22 4.22 0 1 0 4.22 4.22 4.22 4.22 0 0 0-4.22-4.22zm0 6.17a2 2 0 1 1 1.95-2 2 2 0 0 1-1.95 2.03z" fill="#5b141a" fill-rule="evenodd" data-name="Составная фигура"/><path d="M291.13 37.49a3.09 3.09 0 1 0 3.06 3.09 3.08 3.08 0 0 0-3.06-3.09z" fill="#fff" fill-rule="evenodd" data-name="Составная фигура"/><path d="M291.13 36.33a4.22 4.22 0 1 0 4.22 4.22 4.22 4.22 0 0 0-4.22-4.22zm0 6.17a2 2 0 1 1 1.95-2 2 2 0 0 1-1.95 2.03zm-16.27-2.23a1.26 1.26 0 1 0 1.27 1.26 1.27 1.27 0 0 0-1.27-1.26z" fill="#5b141a" fill-rule="evenodd" data-name="Составная фигура"/><path d="M274.86 39.14a2.4 2.4 0 1 0 2.4 2.39 2.39 2.39 0 0 0-2.4-2.39zm-.12 2.39a.12.12 0 0 1 .12-.12.12.12 0 0 1 .13.12c0 .14-.25.14-.25 0zm17.65-1.08a1.26 1.26 0 1 0 1.27 1.26 1.27 1.27 0 0 0-1.27-1.26z" fill="#5b141a" fill-rule="evenodd" data-name="Составная фигура"/><path d="M292.39 39.33a2.4 2.4 0 1 0 2.4 2.39 2.39 2.39 0 0 0-2.4-2.39zm-.12 2.39a.12.12 0 0 1 .12-.12.12.12 0 0 1 .13.12c0 .13-.25.13-.25-.01z" fill="#5b141a" fill-rule="evenodd" data-name="Составная фигура"/><path d="M290.98 36.49a6.35 6.35 0 1 0 6.35 6.35 6.34 6.34 0 0 0-6.35-6.35z" fill="#fff" fill-rule="evenodd" data-name="Составная фигура" opacity=".52"/><path d="M291.28 35.33a7.48 7.48 0 1 0 7.48 7.48 7.48 7.48 0 0 0-7.48-7.48zm0 12.69a5.21 5.21 0 1 1 5.22-5.21 5.22 5.22 0 0 1-5.22 5.24zm-17.52-12.69a7.48 7.48 0 1 0 7.43 7.51 7.48 7.48 0 0 0-7.43-7.51zm0 12.69a5.21 5.21 0 1 1 5.21-5.21 5.22 5.22 0 0 1-5.21 5.24z" fill="#d1625e" fill-rule="evenodd" data-name="Составная фигура"/><path d="M298.32 31.38l-18.26 3.83a7.85 7.85 0 0 0 .07 15.64l16.85 3.74a1.71 1.71 0 0 0 2.08-1.56l1.31-19.86a1.71 1.71 0 0 0-2.05-1.79z" fill="#121214" fill-rule="evenodd" data-name="Составная фигура"/><path d="M300.53 30.91a2.83 2.83 0 0 0-2.45-.64l-18.19 3.82a9 9 0 0 0 .07 17.89l16.77 3.72a3.27 3.27 0 0 0 .62.07 2.88 2.88 0 0 0 1.71-.57 2.84 2.84 0 0 0 1.13-2.09l1.31-19.86a2.82 2.82 0 0 0-.97-2.34zm-2.6 22a.58.58 0 0 1-.23.42.59.59 0 0 1-.48.1l-16.84-3.73h-.16a6.71 6.71 0 0 1-.03-13.37l18.38-3.85h.13a.53.53 0 0 1 .37.14.57.57 0 0 1 .2.48z" fill="#121214" fill-rule="evenodd" data-name="Составная фигура"/><path d="M273.61 48.4a9 9 0 0 0-9.33 9.05v42.47l-11.62-11.08a9 9 0 0 0-12.42 13l19.42 18.54a13.49 13.49 0 0 0 16 1.8 13.92 13.92 0 0 0 6.71-12.13V57.83a9.31 9.31 0 0 0-8.76-9.43z" fill="#fff" fill-rule="evenodd" data-name="Составная фигура"/><path d="M273.65 47.26a10.21 10.21 0 0 0-10.46 10.19v39.82l-9.7-9.25a10.136 10.136 0 1 0-14 14.66l19.4 18.55a14.64 14.64 0 0 0 17.36 1.95 15.05 15.05 0 0 0 7.27-13.11V57.83a10.47 10.47 0 0 0-9.87-10.57zm7.61 62.81a12.82 12.82 0 0 1-6.14 11.15 12.47 12.47 0 0 1-6.23 1.68 12.32 12.32 0 0 1-8.44-3.32l-19.43-18.54a7.86 7.86 0 0 1 4.34-13.47 8.26 8.26 0 0 1 1.1-.08 7.83 7.83 0 0 1 5.41 2.17l13.54 12.9V57.45a7.93 7.93 0 0 1 8.17-7.92 8.19 8.19 0 0 1 7.68 8.3z" fill="#121214" fill-rule="evenodd" data-name="Составная фигура"/><path d="M284.56 32.45l-8.26.89a13.89 13.89 0 0 0-11.82 13.73v9h18.12c0-3.3-.45-12.27.21-15.5a16 16 0 0 1 2.9-6.11 1.26 1.26 0 0 0-1.15-2.01z" fill="#fff" fill-rule="evenodd" data-name="Составная фигура"/><path d="M286.78 32.51a2.37 2.37 0 0 0-2.34-1.18l-8.31.9a14.93 14.93 0 0 0-12.78 14.85v10.13h20.38v-1.13c0-.81 0-2-.06-3.3-.09-3.85-.22-9.66.25-12a15 15 0 0 1 2.7-5.65 2.38 2.38 0 0 0 .16-2.62zm-2 1.28a17.28 17.28 0 0 0-3.1 6.56c-.52 2.57-.39 8.3-.29 12.48v2.12h-15.77v-7.88a12.66 12.66 0 0 1 10.8-12.6l8.27-.9a.11.11 0 0 1 .12.07.11.11 0 0 1-.01.15z" fill="#121214" fill-rule="evenodd" data-name="Составная фигура"/><path d="M306.19 30.09l-1.51.22c-6.8 1-11 11.26-11 18.13v9h18.12c0-3.3.13-9.06.13-9.06l.88-12.1a5.84 5.84 0 0 0-6.62-6.19z" fill="#fff" fill-rule="evenodd" data-name="Составная фигура"/><path d="M311.79 30.77a7 7 0 0 0-5.74-1.8l-1.52.22c-3.42.51-6.57 3.16-8.87 7.46a26.34 26.34 0 0 0-3.07 11.79v10.14h20.38v-1.13c0-3.25.14-9 .13-9l.88-12.12a6.92 6.92 0 0 0-2.19-5.56zm-.07 5.44l-.88 12.12s-.11 4.63-.13 7.94h-15.86v-7.83c0-6.32 3.9-16.09 10-17l1.51-.22a4.7 4.7 0 0 1 5.35 5z" fill="#121214" fill-rule="evenodd" data-name="Составная фигура"/><path d="M325.96 31.38l-18.26 3.83a7.85 7.85 0 0 0 .07 15.64l16.85 3.74a1.71 1.71 0 0 0 2.08-1.56l1.31-19.86a1.71 1.71 0 0 0-2.05-1.79z" fill="#121214" fill-rule="evenodd" data-name="Составная фигура"/><path d="M328.19 30.91a2.83 2.83 0 0 0-2.45-.64l-18.19 3.82a9 9 0 0 0 .07 17.89l16.77 3.72a3.27 3.27 0 0 0 .62.07 2.88 2.88 0 0 0 1.71-.57 2.84 2.84 0 0 0 1.13-2.09l1.34-19.86a2.82 2.82 0 0 0-1-2.34zm-2.6 22a.58.58 0 0 1-.23.42.59.59 0 0 1-.48.1l-16.84-3.73h-.16a6.71 6.71 0 0 1-.08-13.37l18.39-3.84h.13a.53.53 0 0 1 .37.14.57.57 0 0 1 .2.48z" fill="#121214" fill-rule="evenodd" data-name="Составная фигура"/><circle cx="362.33" cy="80.64" r="12.05" transform="rotate(-.28 -7381.31 12707.817)" fill="#00ffc4" data-name="Составная фигура"/><circle cx="390.89" cy="80.64" r="12.05" transform="rotate(-.28 -7346.529 12709.948)" fill="#00ffc4" data-name="Составная фигура"/><path d="M300.52 29.79a13.19 13.19 0 1 0 13.19 13.18 13.21 13.21 0 0 0-13.19-13.18zm0 24.1a10.92 10.92 0 1 1 10.92-10.92 10.93 10.93 0 0 1-10.92 10.92zm28.56-24.1a13.19 13.19 0 1 0 13.19 13.18 13.2 13.2 0 0 0-13.19-13.18zm0 24.1A10.92 10.92 0 1 1 340 42.97a10.93 10.93 0 0 1-10.92 10.92z" fill="#121214" fill-rule="evenodd" data-name="Составная фигура"/><g data-name="Cloud" fill-rule="evenodd"><path d="M745.9 521.01a53.62 53.62 0 0 0-71.3-33.25 63.32 63.32 0 0 0-49.41-23.71 64.9 64.9 0 0 0-10.87.94 84.49 84.49 0 0 0-139.47-11.46c-1 0-1.94-.07-2.91-.07a68.7 68.7 0 0 0-62.52 40.18c-.1.21-.2.43-.29.64a48.5 48.5 0 0 0 6 96.62h279.7a53.59 53.59 0 0 0 51-69.89z" fill="#fff" data-name="Составная фигура"/><path d="M747.09 520.63a54.87 54.87 0 0 0-72.1-34.37 64.42 64.42 0 0 0-49.8-23.46 65.68 65.68 0 0 0-10.22.82 85.73 85.73 0 0 0-140.65-11.36c-.78 0-1.56-.05-2.34-.05a70.15 70.15 0 0 0-63.64 40.88 49.78 49.78 0 0 0-42.87 49.26 49.12 49.12 0 0 0 4.72 21.38 50 50 0 0 0 45 28.42h279.7a54.84 54.84 0 0 0 52.2-71.52zm-52.22 69H415.19a47.51 47.51 0 0 1-42.71-27 46.75 46.75 0 0 1-4.55-20.26 47.27 47.27 0 0 1 41.37-46.87l.7-.09.35-.78.23-.49a67.67 67.67 0 0 1 61.38-39.45c1 0 1.91 0 2.86.07h.63l.4-.49a83.27 83.27 0 0 1 137.34 11.34l.43.76.87-.14a62.07 62.07 0 0 1 59.13 22.31l.59.73.86-.35a52.31 52.31 0 1 1 19.8 100.73z" fill="#121214" data-name="Составная фигура"/></g></svg>