<svg xmlns="http://www.w3.org/2000/svg" viewBox="0 0 660.03 422.03"><path d="M228.57 78.77c-.23-4.53-2.16-4.61-4.13-7.08-7.91-.57-17.69-.63-26.52-.59-.7.48-1 .48-2.36.59l-4.72 4.72c-.08 5.28-1.14 14.41 1.18 17.69 1.1 1.55 3.49 2.05 4.72 3.54h25.93c2.39-.77 4.06-3.32 5.9-4.72.18-3.58 2.02-11.06 0-14.15z" fill="#00ffc4" fill-rule="evenodd"/><path d="M220.92 69.52h-22a9.79 9.79 0 0 0-9.78 9.78v10a9.79 9.79 0 0 0 9.78 9.78h22a9.79 9.79 0 0 0 9.77-9.78v-10a9.78 9.78 0 0 0-9.77-9.78zm6.23 19.74a6.24 6.24 0 0 1-6.23 6.24h-22a6.25 6.25 0 0 1-6.24-6.24v-10a6.25 6.25 0 0 1 6.24-6.24h22a6.24 6.24 0 0 1 6.23 6.24z" fill="#00ffc4" fill-rule="evenodd" data-name="Составная фигура"/><path d="M177.46 341.36H32.59a30.22 30.22 0 0 0-3.59.22 30 30 0 0 0 3.59 59.84h144.87a30.03 30.03 0 0 0 0-60.06zm258.69-160.49a30.89 30.89 0 0 1-25.13-12.84l-80.34-112a64.94 64.94 0 0 0-37.66-25.31L173.64 2.08a11.12 11.12 0 0 0-13.62 9.4 60.47 60.47 0 0 0 46 66.27l.42.11 29.09 6.92 41.82 10 49.12 102.64c-21.4.06-16.37 4.8-16.37 4.8h-50.74v199.29h24a271 271 0 0 0 127.77-32.06 56.65 56.65 0 0 1 26.76-6.84h95.32V180.87z" fill="#121214" fill-rule="evenodd" data-name="Составная фигура"/><path d="M177.46 339.59H32.59a32.55 32.55 0 0 0-3.8.23 31.8 31.8 0 0 0 3.8 63.37h144.87a31.8 31.8 0 0 0 0-63.6zm20 51.78a28.06 28.06 0 0 1-20 8.28H32.59a28.26 28.26 0 0 1-3.38-56.32 29.74 29.74 0 0 1 3.38-.2h144.87a28.26 28.26 0 0 1 20 48.24zM436.15 179.1a29.22 29.22 0 0 1-23.67-12.15L332.12 55.03a66.67 66.67 0 0 0-38.68-26L174.02.36a12.93 12.93 0 0 0-10.39 2 12.8 12.8 0 0 0-5.42 9 62.2 62.2 0 0 0 47.39 68.21l70.52 16.82 47.56 99.38c-12.41.3-14.91 2.41-15.64 4.26a2.46 2.46 0 0 0-.15.51h-50.3v202.74h25.74a273.25 273.25 0 0 0 128.59-32.25 55.28 55.28 0 0 1 25.93-6.62h97.09V179.1zm95.25 181.74h-93.55a58.76 58.76 0 0 0-27.6 7 269.74 269.74 0 0 1-126.92 31.86h-22.21V203.97h53.49l-3.06-2.89c.7-.51 3.65-1.89 15-1.91h2.8L278.62 93.24l-72.16-17.21a58.68 58.68 0 0 1-44.7-64.34 9.25 9.25 0 0 1 3.92-6.47 9.37 9.37 0 0 1 7.55-1.42l119.38 28.64a63.19 63.19 0 0 1 36.64 24.59l80.36 112a32.76 32.76 0 0 0 26.54 13.63h95.25z" fill="#fff" fill-rule="evenodd" data-name="Составная фигура"/><path d="M209.91 97.37A160.71 160.71 0 0 0 53.33 293.23l.09.39A160.61 160.61 0 0 0 209.91 418.5c88.61 0 160.46-71.88 160.46-160.56S298.52 97.37 209.91 97.37z" fill="#121214" fill-rule="evenodd" data-name="Составная фигура"/><path d="M209.91 95.6a162.48 162.48 0 0 0-158.32 198l.06.27v.19a160.72 160.72 0 0 0 27.68 60.32 163.52 163.52 0 0 0 56.27 48 160.29 160.29 0 0 0 74.27 18c89.45 0 162.23-72.82 162.23-162.33S299.36 95.6 209.91 95.6zm0 321.13a156.92 156.92 0 0 1-72.65-17.57 160.22 160.22 0 0 1-55.05-46.93 157.12 157.12 0 0 1-27.06-58.93l-.09-.46a158.71 158.71 0 0 1 154.85-193.7c87.5 0 158.69 71.24 158.69 158.8s-71.19 158.79-158.69 158.79z" fill="#fff" fill-rule="evenodd" data-name="Составная фигура"/><ellipse cx="209.9" cy="257.93" rx="137.96" ry="138.05" fill="#121214" data-name="Составная фигура"/><path d="M209.9 118.11c-77 0-139.73 62.73-139.73 139.83s62.68 139.82 139.73 139.82 139.73-62.73 139.73-139.82-62.68-139.83-139.73-139.83zm0 276.11c-75.1 0-136.19-61.14-136.19-136.28S134.8 121.65 209.9 121.65s136.2 61.14 136.2 136.29-61.08 136.28-136.2 136.28z" fill="#fff" fill-rule="evenodd" data-name="Составная фигура"/><path d="M280.7 189.11a1.06 1.06 0 0 0-1.5 0L164.02 301.17a1.07 1.07 0 0 0 .74 1.83 1 1 0 0 0 .74-.3l115.18-112.09a1.07 1.07 0 0 0 .02-1.5z" fill="#00ffc4" fill-rule="evenodd" data-name="Составная фигура"/><path d="M209.9 250.34a7.6 7.6 0 1 0 7.59 7.59 7.59 7.59 0 0 0-7.59-7.59z" fill="#121214" fill-rule="evenodd" data-name="Составная фигура"/><path d="M209.9 248.57a9.37 9.37 0 1 0 9.36 9.37 9.37 9.37 0 0 0-9.36-9.37zm0 15.19a5.83 5.83 0 1 1 5.82-5.82 5.83 5.83 0 0 1-5.82 5.82z" fill="#00ffc4" fill-rule="evenodd" data-name="Составная фигура"/><circle cx="231.06" cy="378.09" r="4.69" transform="rotate(-.14 -29665.548 28988.19)" fill="#00ffc4" data-name="Составная фигура"/><path d="M223.5 193.36l-20.48-18.33a1.06 1.06 0 1 0-1.41 1.58l20.48 18.3a1.07 1.07 0 0 0 .71.27 1 1 0 0 0 .79-.36 1.06 1.06 0 0 0-.09-1.46z" fill="#00ffc4" fill-rule="evenodd" data-name="Составная фигура"/><path d="M209.71 133.03a4.72 4.72 0 1 0 4.72 4.72 4.72 4.72 0 0 0-4.72-4.72zm0 240.62a4.72 4.72 0 1 0 4.72 4.72 4.72 4.72 0 0 0-4.72-4.72zm47.15-9.43a4.72 4.72 0 1 0 4.72 4.72 4.72 4.72 0 0 0-4.72-4.72zm37.72-25.94a4.72 4.72 0 1 0 4.72 4.72 4.72 4.72 0 0 0-4.72-4.72zm-169.75 0a4.72 4.72 0 1 0 4.72 4.72 4.72 4.72 0 0 0-4.72-4.72zm196.86-40.09a4.72 4.72 0 1 0 4.71 4.72 4.71 4.71 0 0 0-4.71-4.72zm-224 0a4.72 4.72 0 1 0 4.72 4.72 4.72 4.72 0 0 0-4.7-4.72zm232.25-44.85a4.72 4.72 0 1 0 4.72 4.72 4.72 4.72 0 0 0-4.7-4.72zm-241.67 0a4.72 4.72 0 1 0 4.75 4.69 4.72 4.72 0 0 0-4.73-4.69zm232.25-37.75a4.72 4.72 0 1 0-4.72-4.72 4.72 4.72 0 0 0 4.72 4.72zm-222.81-9.44a4.72 4.72 0 1 0 4.72 4.72 4.72 4.72 0 0 0-4.72-4.72zm198.06-37.74a4.72 4.72 0 1 0 4.72 4.71 4.71 4.71 0 0 0-4.72-4.71zm-170.94 0a4.72 4.72 0 1 0 4.72 4.71 4.72 4.72 0 0 0-4.72-4.71zm134.38-22.38a4.72 4.72 0 1 0-4.72 4.72 4.72 4.72 0 0 0 4.72-4.72zm-91.94 0a4.72 4.72 0 1 0-4.72 4.72 4.72 4.72 0 0 0 4.72-4.72zm-2.36 218.22a4.72 4.72 0 1 0 4.7 4.72 4.71 4.71 0 0 0-4.7-4.75z" fill="#fff" fill-rule="evenodd" data-name="Ellipse 2 copy 3"/><circle cx="209.9" cy="182.73" r="5.51" fill="#121214" data-name="Составная фигура"/><path d="M209.9 175.45a7.29 7.29 0 1 0 7.28 7.28 7.29 7.29 0 0 0-7.28-7.28zm0 11a3.75 3.75 0 1 1 3.75-3.75 3.75 3.75 0 0 1-3.75 3.78z" fill="#00ffc4" fill-rule="evenodd" data-name="Составная фигура"/><path d="M209.9 157.03a25.72 25.72 0 1 0 25.7 25.71 25.73 25.73 0 0 0-25.7-25.71zm0 47.89a22.18 22.18 0 1 1 22.17-22.18 22.19 22.19 0 0 1-22.17 22.17z" fill="#fff" fill-rule="evenodd" data-name="Составная фигура"/><path d="M70.83 160.03H36.28a30 30 0 0 0-30 30 30 30 0 0 0 30 30h34.55a30 30 0 0 0 30-30 30 30 0 0 0-30-30z" fill="#121214" fill-rule="evenodd" data-name="Составная фигура"/><path d="M70.83 158.24H36.28a31.8 31.8 0 0 0 0 63.6h34.55a31.8 31.8 0 0 0 0-63.6zm0 60.06H36.28a28.26 28.26 0 0 1 0-56.52h34.55a28.26 28.26 0 0 1 0 56.52z" fill="#fff" fill-rule="evenodd" data-name="Составная фигура"/><path fill="#00ffc4" d="M433.68 179.02h53.03v210h-53.03z" data-name="Составная фигура"/><path d="M75.02 281.31H40.48a30 30 0 0 0-30 30 30 30 0 0 0 30 30h34.54a30 30 0 0 0 30-30 30 30 0 0 0-30-30z" fill="#121214" fill-rule="evenodd" data-name="Составная фигура"/><path d="M75.02 279.54H40.48a31.8 31.8 0 0 0 0 63.59h34.54a31.8 31.8 0 0 0 0-63.59zm0 60.05H40.48a28.26 28.26 0 0 1 0-56.51h34.54a28.26 28.26 0 0 1 0 56.51z" fill="#fff" fill-rule="evenodd" data-name="Составная фигура"/><path d="M66.32 221.26H31.78a30 30 0 0 0 0 60h34.54a30 30 0 0 0 30-30 30 30 0 0 0-30-30z" fill="#121214" fill-rule="evenodd" data-name="Составная фигура"/><path d="M66.32 219.49H31.78a31.8 31.8 0 0 0 0 63.59h34.54a31.8 31.8 0 0 0 0-63.59zm0 60.05H31.78a28.26 28.26 0 0 1 0-56.51h34.54a28.26 28.26 0 0 1 0 56.51z" fill="#fff" fill-rule="evenodd" data-name="Составная фигура"/><path fill="#121214" d="M472.02 171.03h188.01v249.01H472.02z" data-name="Составная фигура"/><path d="M519.82 369.35a13.89 13.89 0 1 0 13.89 13.89 13.9 13.9 0 0 0-13.89-13.89zm0 24.24a10.35 10.35 0 1 1 10.35-10.35 10.36 10.36 0 0 1-10.35 10.35z" fill="#fff" fill-rule="evenodd" data-name="Составная фигура"/><path d="M471.4 169.61v252.42h186.73c1 0 1.9-1.13 1.9-2.52v-249.9zm186 248.88H474.07V173.14h183.29zM178.02 110.88a2.35 2.35 0 0 0-2.83-1.76 151.12 151.12 0 0 0-56.66 26.37 2.37 2.37 0 0 0-.47 3.31 2.36 2.36 0 0 0 3.3.47 146.5 146.5 0 0 1 54.9-25.56 2.35 2.35 0 0 0 1.76-2.83zm-66.86 33.62a2.36 2.36 0 0 0-3.33-.18c-3.76 3.38-7.39 7-10.8 10.73a2.36 2.36 0 0 0 3.49 3.18c3.3-3.62 6.82-7.12 10.46-10.4a2.36 2.36 0 0 0 .18-3.33z" fill="#fff" fill-rule="evenodd" data-name="Составная фигура"/></svg>