<svg xmlns="http://www.w3.org/2000/svg" viewBox="0 0 140 220"><g data-name="body"><path d="M7.5 218.5V188A38.54 38.54 0 0 1 46 149.5h54a38.54 38.54 0 0 1 38.5 38.5v30.5z" fill="#fff" fill-rule="evenodd"/><path d="M100 151a37 37 0 0 1 37 37v29H9v-29a37 37 0 0 1 37-37h54m0-3H46a40 40 0 0 0-40 40v32h134v-32a40 40 0 0 0-40-40z" fill="#121214"/></g><path d="M58 168.5A13.52 13.52 0 0 1 44.5 155v-30.5h47V146A22.52 22.52 0 0 1 69 168.5z" fill="#fff" fill-rule="evenodd"/><path d="M90 126v20a21 21 0 0 1-21 21H58a12 12 0 0 1-12-12v-29h44m3-3H43v32a15 15 0 0 0 15 15h11a24 24 0 0 0 24-24v-23z" fill="#121214"/><path d="M55 142.5A41.55 41.55 0 0 1 13.5 101V51A49.56 49.56 0 0 1 63 1.5h1A49.56 49.56 0 0 1 113.5 51v41A50.55 50.55 0 0 1 63 142.5z" fill="#fff" fill-rule="evenodd"/><path d="M64 3a48.05 48.05 0 0 1 48 48v41a49.05 49.05 0 0 1-49 49h-8a40 40 0 0 1-40-40V51A48.05 48.05 0 0 1 63 3h1m0-3h-1a51 51 0 0 0-51 51v50a43 43 0 0 0 43 43h8a52 52 0 0 0 52-52V51A51 51 0 0 0 64 0z" fill="#121214"/><path d="M112.82 84.5c-5.38 0-10.25-.28-15.43-3.75a18 18 0 0 1-7.49-12c-.32-1.87-.56-3.9-.79-5.87-.84-7.05-1.62-13.71-6.05-16.18-3.64-2-7-2.19-11.33-2.19h-45.3c-12 0-24.93-8.64-24.93-21.5V1.5h78.79c23.28 0 42.21 18.62 42.21 41.5v41.5z" fill="#fff" fill-rule="evenodd"/><path d="M80.3 3C102.74 3 121 20.94 121 43v40h-8.18c-5.13 0-9.76-.26-14.59-3.49a16.8 16.8 0 0 1-6.85-11c-.31-1.83-.55-3.85-.78-5.8-.84-7.11-1.72-14.46-6.81-17.31-3.95-2.21-7.64-2.38-12-2.38H26.43a25.94 25.94 0 0 1-16.35-5.84A18.36 18.36 0 0 1 3 23V3h77.3m0-3H0v23c0 13.26 13 23 26.43 23h45.31c4 0 7.2.11 10.59 2 4.92 2.75 4.7 12.91 6.1 21a19.6 19.6 0 0 0 8.13 13c5.5 3.68 10.77 4 16.26 4H124V43c0-23.75-19.57-43-43.7-43z" fill="#121214"/><path d="M32 114v1.41c0 6.94 5.39 12.59 12 12.59s12-5.66 12-12.61V114zm12 11.2a9.11 9.11 0 0 1-9-8.2h18a9.1 9.1 0 0 1-9 8.2z" fill="#121214" fill-rule="evenodd"/><circle cx="114" cy="85" r="13" fill="#fff" data-name="shape #1"/><path d="M114 72a14 14 0 0 0-14 14 1.34 1.34 0 0 0 1.35 1.35c.75 0 1.65-.6 1.65-1.35a11 11 0 1 1 11 11 11.06 11.06 0 0 1-5.59-1.21 1.36 1.36 0 0 0-1.35 2.36A14 14 0 1 0 114 72z" fill="#121214" fill-rule="evenodd" data-name="shape #2"/><path d="M113.85 79.22a1.35 1.35 0 1 0 0 2.69 3.75 3.75 0 0 1 3.75 3.75 1.35 1.35 0 0 0 2.69 0 6.45 6.45 0 0 0-6.44-6.44z" fill="#121214" fill-rule="evenodd" data-name="shape #3"/><g fill="#00ffc4" fill-rule="evenodd"><path d="M19 68a16 16 0 1 0 16 16 16 16 0 0 0-16-16zm0 29.31A13.32 13.32 0 1 1 32.33 84 13.34 13.34 0 0 1 19 97.31zM59 68a16 16 0 1 0 16 16 16 16 0 0 0-16-16zm0 29.31A13.32 13.32 0 1 1 72.34 84 13.34 13.34 0 0 1 59 97.31z" data-name="Составная фигура"/><path d="M45.78 75H32.23a1.53 1.53 0 0 0 0 3h13.55a1.53 1.53 0 0 0 0-3zM100 82H75.31a1.46 1.46 0 0 0 0 2.9l24.36.12h.33c.73 0 1-.64 1-1.43s-.27-1.59-1-1.59z" data-name="Составная фигура"/></g></svg>