<svg xmlns="http://www.w3.org/2000/svg" viewBox="0 0 139.99 220.02"><path d="M95.99 149.59H42.15c-16.39 0-30.16 13.03-30.16 29.43v41h127v-33c0-26.88-24.42-38.09-43-37.43z" fill="#fff" fill-rule="evenodd" data-name="Составная фигура"/><path fill="#121214" d="M12.99 218.02h125v2h-125z" data-name="Rectangle 1"/><path d="M129.73 160.6a46 46 0 0 0-32.74-12.58h-55c-17.06 0-31 14.94-31 32v40h2v-40c0-15.68 13.32-30 29-30h55c9.32-.33 21.65 3.35 31 12.38 6.66 6.43 10 13.73 10 23.62v34h2v-34c0-10.43-3.2-18.6-10.26-25.42z" fill="#121214" fill-rule="evenodd" data-name="Составная фигура"/><path fill="#fff" fill-rule="evenodd" d="M45.99 151.02v68.99L89 153.46l-43.01-2.44z" data-name="Составная фигура"/><path d="M47.44 132.02v29.85a2.61 2.61 0 0 0 2.61 2.61h21.94a20.7 20.7 0 0 0 20.64-19c0-.56.07-1.12.07-1.68v-18.62z" fill="#fff" fill-rule="evenodd" data-name="Составная фигура"/><path d="M46.1 131.02v29.84a5 5 0 0 0 5 4.94h20.81a22.05 22.05 0 0 0 21.88-20.18c.05-.6.08-1.18.08-1.78v-20.12zm45.22 12.82c0 .53 0 1-.07 1.58a19.54 19.54 0 0 1-19.39 17.88H51.05a2.45 2.45 0 0 1-2.45-2.44v-27.74l42.72-6.49z" fill="#121214" fill-rule="evenodd" data-name="Составная фигура"/><path d="M103.8 72.85c-2 1.83-5.08 2.44-6.62 4.73-1.13 1.67-1.09 4.2-2.37 5.68.9 4.54 4.87 8.72 7.1 12.3 20.58 5.64 24.66-23.54 1.89-22.71z" fill="#fff" fill-rule="evenodd"/><path d="M107.25 71.38a13.27 13.27 0 0 0-13.26 13.26 1.25 1.25 0 0 0 2.5 0 10.74 10.74 0 1 1 5.42 9.34 1.25 1.25 0 0 0-1.24 2.17 13.25 13.25 0 1 0 6.56-24.77z" fill="#121214" fill-rule="evenodd" data-name="Составная фигура"/><path d="M107.25 78.5a1.25 1.25 0 0 0 0 2.5 3.63 3.63 0 0 1 3.63 3.64 1.26 1.26 0 0 0 2.51 0 6.14 6.14 0 0 0-6.14-6.14z" fill="#121214" fill-rule="evenodd" data-name="Составная фигура"/><path d="M102.38 35.95a28.39 28.39 0 0 0-11.82-9.47c-5.37-2-13.22-1.41-20.34-1.41h-36.9c-1.85 1.13-5 .64-7.09 1.41a27.83 27.83 0 0 0-13.72 12.31c-4.33 8.38-2.36 25.34-2.36 37.37 0 9-1.59 22.44.47 30.28 6.05 23 19.71 32.7 49.19 32.64 6 0 11.56-.85 16.08-2.83 16.28-7.15 25.63-19.38 30.27-38.33V68.59c0-12.1 1.13-25.49-3.78-32.64z" fill="#fff" fill-rule="evenodd" data-name="new_vector_shape_done"/><path d="M107.54 57.52v-7.67a25.88 25.88 0 0 0-25.89-25.83H34.9A25.92 25.92 0 0 0 8.99 49.86v49.16a41.49 41.49 0 0 0 41.44 41.45h7.81a49.27 49.27 0 0 0 49.27-49.28V57.67c.04-.05.03-.1.03-.15zm-2.5 33.61a46.77 46.77 0 0 1-46.77 46.79h-7.81a39 39 0 0 1-38.94-39V49.86A23.41 23.41 0 0 1 34.9 26.47h46.75a23.39 23.39 0 0 1 23.39 23.38v41.28z" fill="#121214" fill-rule="evenodd" data-name="Составная фигура"/><path d="M36.72 102.48a6 6 0 0 1-6-6V80.2a1.26 1.26 0 1 0-2.51 0v16.28a8.51 8.51 0 0 0 8.51 8.5 1.25 1.25 0 0 0 0-2.5z" fill="#121214" fill-rule="evenodd" data-name="Составная фигура"/><path d="M69.99 1.26c-.1 0-.2 0 .29.06L2.19 1.26v18c0 17 9.67 30.83 26.71 30.83h9.55a54.85 54.85 0 0 0 29.42-8.55l.28-.18a10.2 10.2 0 0 1 15.45 6.49l.48 2.24 6.4 29.56a6.14 6.14 0 0 0 11.51 1.5l10.14-8.51V43.41A42.15 42.15 0 0 0 69.99 1.26z" fill="#fff" fill-rule="evenodd" data-name="Составная фигура"/><path d="M69.99.02h-70v19.35c0 19.24 11.44 32.17 28.34 32.17h9.68a57.23 57.23 0 0 0 30.5-8.77l.28-.18a9.06 9.06 0 0 1 8.38-.7 8.91 8.91 0 0 1 5.37 6.41l7 31.9a7.37 7.37 0 0 0 6.37 5.78 6.59 6.59 0 0 0 1 .07 7.4 7.4 0 0 0 6.52-3.84l10.56-8.78V43.54c0-24-19.74-43.52-44-43.52zm41.45 72.25l-10 8.33-.12.23a5 5 0 0 1-9.26-1.17l-6.51-29.64-.48-2.25a11.41 11.41 0 0 0-6.86-8.2 11.87 11.87 0 0 0-4.53-.92 11.63 11.63 0 0 0-6.2 1.81l-.28.18a54.62 54.62 0 0 1-29.14 8.38h-9.68c-17.77 0-25.76-14.91-25.8-29.68V2.52l67.74.06v-.06a41.27 41.27 0 0 1 41.15 41z" fill="#121214" fill-rule="evenodd" data-name="Составная фигура"/><path fill="#fff" fill-rule="evenodd" d="M39.28 150.06l-8.29 22.69 4.78 6.05-3.44 13.09 13.66 28.13v-73l-6.71 3.04z" data-name="Составная фигура"/><path d="M38.79 148.83l-8.8 22.06 4.92 5.7-3.49 12.17 16.57 31.26v-75zm6.65 61.19l-11.35-21.43 3.55-12.37-4.85-5.63 8.14-20.45 4.51-1.87z" fill="#121214" fill-rule="evenodd" data-name="Составная фигура"/><path d="M91.75 140.02l-33.47 19.39.09 28 36.35-37v-7.39a3 3 0 0 0-2.97-3z" fill="#fff" fill-rule="evenodd" data-name="Составная фигура"/><path d="M91.77 139.02h-.34l-34.44 19.65.1 31.35 38.9-39v-7.85a4.21 4.21 0 0 0-4.22-4.15zm1.72 11l-33.9 34-.08-23.92 32.55-18.58a1.71 1.71 0 0 1 1.43 1.68z" fill="#121214" fill-rule="evenodd" data-name="Составная фигура"/><path d="M47.51 141.92c-6.47.67-5.21 4.93-6.62 10.88-.47 2-1.77 5.84-1 9 .87 3.31 2.73 7.16 3.79 10.41.88 2.71.83 5.95 2.36 8l.48.48c2.25-11.31 1.07-26 .99-38.77z" fill="#fff" fill-rule="evenodd" data-name="new_vector_shape_done"/><path d="M47.64 140.88a7.66 7.66 0 0 0-7.56 6.61l-1.72 12.58 9.34 29.62 1.19-29.29v-19.52zm-1.86 34.41l-4.86-15.44 1.64-12a5.14 5.14 0 0 1 3.83-4.29v16.81z" fill="#121214" fill-rule="evenodd" data-name="Составная фигура"/><path d="M55.83 159.41h-7.84c-1.4 0-2 1.2-2 2.61v10c0 1.41.59 3 2 3h7.85c1.4 0 2.16-1.57 2.16-3v-10c-.01-1.41-.77-2.61-2.17-2.61z" fill="#00ffc4" fill-rule="evenodd" data-name="Составная фигура"/><path d="M55.99 158.02h-7a4.1 4.1 0 0 0-4 4v10a4.13 4.13 0 0 0 4 4h7c2 0 4-.78 4-3v-11a4.12 4.12 0 0 0-4-4zm2 14a2.81 2.81 0 0 1-2 2h-7a2.81 2.81 0 0 1-2-2v-10a2.81 2.81 0 0 1 2-2h7a2.81 2.81 0 0 1 2 2z" fill="#121214" fill-rule="evenodd" data-name="Составная фигура"/><path fill="#00ffc4" fill-rule="evenodd" d="M46.99 176.01v41l11-16.59v-24.41h-11z" data-name="Составная фигура"/><path d="M57.99 200.42v-.2l-5.49 7.52zm-13-26.4v44l7.51-10.28-5.51 7.35v-39.07h11v24.2l2-2.73V174.1zm-17.37-61.46v1.26a11.23 11.23 0 0 0 22.46 0v-1.26zm11.23 10a8.75 8.75 0 0 1-8.64-7.48h17.28a8.75 8.75 0 0 1-8.64 7.47z" fill="#121214" fill-rule="evenodd" data-name="Составная фигура"/><path d="M107.81 150.46a4.26 4.26 0 0 0-3.17-1.42l-10.65-.02-50 71 51.1-15.76v-11.91l12.14-3.54 1.74-35a4.67 4.67 0 0 0-1.16-3.35zm-3 36.33l-11.82 4.83v11.58l-44 12.82 48.48-64.37h7.17a1.83 1.83 0 0 1 1.34.61 2 2 0 0 1 .51 1.43z" fill="#121214" fill-rule="evenodd" data-name="Составная фигура"/></svg>