<svg xmlns="http://www.w3.org/2000/svg" viewBox="0 0 512 512"><path d="M251.1 356.3h14.8v23.4h-14.8z"/><path fill="#00ffc4" d="M434.2 386.9v-61h-56.3v61h-61v56.3h61v60.9h56.3v-60.9h60.9v-56.3z"/><path d="M440.6 380.9v-62.3h-28.8c-9.3-60.5-53.6-109.6-111.6-125.8 34.9-15.9 59.2-51.1 59.2-91.9C359.4 45.3 314.1 0 258.5 0S157.6 45.3 157.6 100.9c0 40.8 24.3 76 59.2 91.9-65.3 18.3-113.4 78.3-113.4 149.4v107.2h206.2v.2h62.3V512h68.7v-62.3h62.3V381h-62.3zM258.5 14.8c47.5 0 86.2 38.6 86.2 86.2v1.1c-57.4-1.5-91.5-20.8-104.8-30.1 6.4-7.7 9.2-13.3 9.5-13.9l-13.3-6.4c-.2.3-15.4 30.8-63.7 47.8.8-46.9 39.1-84.7 86.1-84.7zm-85.1 99.8c26.2-8.6 44.2-20.9 56.1-31.9 13.8 10.3 50.4 32.2 113.6 34.1-7.5 40-42.6 70.3-84.7 70.3-42.8 0-78.4-31.5-85-72.5zM300 208.1l-41.5 47.6-41.5-47.6c13.1-4.1 27.1-6.3 41.5-6.3 14.4 0 28.4 2.2 41.5 6.3zm9.5 172.8v53.7h-126v-87.8h-14.8v87.8H118v-92.5c0-57.4 34.6-106.8 84.1-128.6l48.9 56.1v66.7h14.8v-66.7l48.9-56.1c42.5 18.7 74.1 57.9 82.1 105h-25v62.3h-23.7v-34h-14.8v34h-23.8zm178.7 54h-62.3v62.3h-39.2v-62.3h-62.3v-39.2h62.3v-62.3h39.2v62.3h62.3v39.2zm-419.3-239h14.8v16.3H68.9zM0 303.9h14.8v16.3H0zm59.9 80h14.8v16.3H59.9zm48.3-261.3H123v16.3h-14.8zM37.2 64H52v16.3H37.2zm66.1-41.3h14.8V39h-14.8zm334.1 173.2h14.8v16.3h-14.8zm59.8 108H512v16.3h-14.8zM398 122.6h14.8v16.3H398zM469.1 64h14.8v16.3h-14.8zM403 22.7h14.8V39H403z" fill="#121214"/></svg>