<svg version="1.1" id="Layer_1" xmlns="http://www.w3.org/2000/svg" x="0" y="0" viewBox="0 0 512 512" xml:space="preserve"><style>.st1{fill:#121214}</style><path d="M333.8 49.9c-16.3-25.8-45-43-77.8-43-50.8 0-91.9 41.2-91.9 91.9 0 1.9.1 3.8.2 5.7 13.5-3.4 31.6-9.6 48.2-20.4 5.8-3.8 11.4-8.2 16.6-13.2 0 0 36 36.6 118.6 33.6.1-1.9.2-3.7.2-5.6 0-18-5.2-34.8-14.1-49z" fill="#00ffc4"/><path class="st1" d="M378.5 202.7l-20 20c-17.6-16.4-38.9-28.4-61.9-34.9 33.7-15.6 57.1-49.7 57.1-89.2 0-54.1-44-98.2-98.2-98.2s-98.2 44-98.2 98.2c0 39.4 23.4 73.5 57 89.1-22.8 6.4-43.8 18.2-61.5 34.7l-20.3-20.3L0 334.6l43.1 43.1 18.8-18.8L78 375.1l19.5-19.5 39.6 39.6-17.7 17.8 35.5 35.5 25.2 25.2 24.3 24.3 5.6-5.7 19.1 19.1 22.7-22.7 21.4 21.4 21.4-21.4 8.3 8.3 31.5-31.5 26.5-26.5 32-32-15.4-15.4 35.9-35.9 19.8 19.8 16-16 18.8 18.8 43.1-43.1-132.6-132.5zm-68.3 5.7c13.8 6.1 26.6 14.4 37.8 24.8l-21.3 21.3H270l40.2-46.1zm-54.7 40.3l-40-45.9c12.8-3.9 26.3-6 40-6 13.6 0 27.1 2.1 39.9 6l-39.9 45.9zm0-233.5c46 0 83.4 37.4 83.4 83.4v.8c-55.3-1.5-88.3-20-101.2-29.1 6.2-7.4 8.8-12.8 9.1-13.4l-13.3-6.4c-.2.3-14.9 29.7-61.5 46.2 1.1-45 38.1-81.5 83.5-81.5zm-82.4 96.9c25.3-8.3 42.7-20.2 54.2-30.9 13.5 10.1 49 31.2 110.1 33-7.3 38.6-41.3 67.9-82 67.9-41.4 0-75.8-30.4-82.3-70zm27.6 96.2l40.2 46.1h-56.2l-21.5-21.5c11.2-10.3 23.9-18.6 37.5-24.6zM92.6 339.7L78 354.2l-5.7-5.7 62.4-62.4-10.4-10.4-67.7 67.7L43 357l-22.2-22.2L132.5 223l38.4 38.4-78.3 78.3zm62.3 88L140.2 413l31.4-31.4 14.7 14.7-31.4 31.4zm24.4 24.4l-13.9-13.9 31.4-31.4 13.9 13.9-31.4 31.4zm24.3 24.3l-13-13.1 31.4-31.4 13.1 13.1-31.5 31.4zm25.5 14.3l-8.7-8.7 20.1-20.1 8.7 8.7-20.1 20.1zm44.1-1.4l-10.9-10.9 7.8-7.8-19.1-19.1 3.2-3.2 7.1 7.1-.1.1 23 23-11 10.8zM367 381.2l-82.4-82.4-57.4 57.4-31.3-31.3 36.6-36.6-10.5-10.4-47 47 52.2 52.2 57.4-57.4 64.4 64.4 23 23-15.8 15.8-38.5-38.5-10.4 10.4 38.5 38.5-16.4 16.4-38.5-38.5-10.4 10.4 38.5 38.5-16.1 16.1-38.5-38.5-8 8-59.6-59.7-25.2-25.2-24 24-39.6-39.6 76-76h142.8l76.2 76.2-36 35.8zm87.3-37.4l-67.7-67.7-10.4 10.4 62.4 62.4-5.6 5.6-9.3-9.3-83.5-83.5 38.3-38.3L490.1 335l-22.2 22.2-13.6-13.4z"/><path transform="rotate(-45.001 368.003 267.935)" class="st1" d="M360.6 261.8h14.7V274h-14.7z"/><path transform="rotate(-44.992 142.95 267.397)" class="st1" d="M136.8 260H149v14.7h-12.2z"/><path class="st1" d="M497.3 79.7H512v16h-14.7zm-54.1 30h14.7v16h-14.7zm-42.3-63.9h14.7v16h-14.7zm42.3-30.9h14.7v16h-14.7zm-74.3 118.2h14.7v16h-14.7zm72.9 49.6h14.7v16h-14.7zM1 79.7h14.7v16H1zm54.1 30h14.7v16H55.1zm42.2-63.9H112v16H97.3zM55.1 14.9h14.7v16H55.1zm74.3 118.2h14.7v16h-14.7zm-72.9 49.6h14.7v16H56.5z"/><path class="st1" d="M378.5 202.7l-20 20c-17.6-16.4-38.9-28.4-61.9-34.9 33.7-15.6 57.1-49.7 57.1-89.2 0-54.1-44-98.2-98.2-98.2s-98.2 44-98.2 98.2c0 39.4 23.4 73.5 57 89.1-22.8 6.4-43.8 18.2-61.5 34.7l-20.3-20.3L0 334.6l43.1 43.1 18.8-18.8L78 375.1l19.5-19.5 39.6 39.6-17.7 17.8 35.5 35.5 25.2 25.2 24.3 24.3 5.6-5.7 19.1 19.1 22.7-22.7 21.4 21.4 21.4-21.4 8.3 8.3 31.5-31.5 26.5-26.5 32-32-15.4-15.4 35.9-35.9 19.8 19.8 16-16 18.8 18.8 43.1-43.1-132.6-132.5zm-68.3 5.7c13.8 6.1 26.6 14.4 37.8 24.8l-21.3 21.3H270l40.2-46.1zm-54.7 40.3l-40-45.9c12.8-3.9 26.3-6 40-6 13.6 0 27.1 2.1 39.9 6l-39.9 45.9zm0-233.5c46 0 83.4 37.4 83.4 83.4v.8c-55.3-1.5-88.3-20-101.2-29.1 6.2-7.4 8.8-12.8 9.1-13.4l-13.3-6.4c-.2.3-14.9 29.7-61.5 46.2 1.1-45 38.1-81.5 83.5-81.5zm-82.4 96.9c25.3-8.3 42.7-20.2 54.2-30.9 13.5 10.1 49 31.2 110.1 33-7.3 38.6-41.3 67.9-82 67.9-41.4 0-75.8-30.4-82.3-70zm27.6 96.2l40.2 46.1h-56.2l-21.5-21.5c11.2-10.3 23.9-18.6 37.5-24.6zM92.6 339.7L78 354.2l-5.7-5.7 62.4-62.4-10.4-10.4-67.7 67.7L43 357l-22.2-22.2L132.5 223l38.4 38.4-78.3 78.3zm62.3 88L140.2 413l31.4-31.4 14.7 14.7-31.4 31.4zm24.4 24.4l-13.9-13.9 31.4-31.4 13.9 13.9-31.4 31.4zm24.3 24.3l-13-13.1 31.4-31.4 13.1 13.1-31.5 31.4zm25.5 14.3l-8.7-8.7 20.1-20.1 8.7 8.7-20.1 20.1zm44.1-1.4l-10.9-10.9 7.8-7.8-19.1-19.1 3.2-3.2 7.1 7.1-.1.1 23 23-11 10.8zM367 381.2l-82.4-82.4-57.4 57.4-31.3-31.3 36.6-36.6-10.5-10.4-47 47 52.2 52.2 57.4-57.4 64.4 64.4 23 23-15.8 15.8-38.5-38.5-10.4 10.4 38.5 38.5-16.4 16.4-38.5-38.5-10.4 10.4 38.5 38.5-16.1 16.1-38.5-38.5-8 8-59.6-59.7-25.2-25.2-24 24-39.6-39.6 76-76h142.8l76.2 76.2-36 35.8zm87.3-37.4l-67.7-67.7-10.4 10.4 62.4 62.4-5.6 5.6-9.3-9.3-83.5-83.5 38.3-38.3L490.1 335l-22.2 22.2-13.6-13.4z"/><path transform="rotate(-45.001 368.003 267.935)" class="st1" d="M360.6 261.8h14.7V274h-14.7z"/><path transform="rotate(-44.992 142.938 267.368)" class="st1" d="M136.8 260H149v14.7h-12.2z"/><path class="st1" d="M497.3 79.7H512v16h-14.7zm-54.1 30h14.7v16h-14.7zm-42.3-63.9h14.7v16h-14.7zm42.3-30.9h14.7v16h-14.7zm-74.3 118.2h14.7v16h-14.7zm72.9 49.6h14.7v16h-14.7zM1 79.7h14.7v16H1zm54.1 30h14.7v16H55.1zm42.2-63.9H112v16H97.3zM55.1 14.9h14.7v16H55.1zm74.3 118.2h14.7v16h-14.7zm-72.9 49.6h14.7v16H56.5z"/></svg>