<svg version="1.1" id="Layer_1" xmlns="http://www.w3.org/2000/svg" x="0" y="0" viewBox="0 0 512 512" xml:space="preserve"><style>.st1{fill:#121214}</style><path d="M298.5 312.3c-13.2-5.1-27.5-7.9-42.5-7.9-15.1 0-29.5 2.8-42.8 8-43.8 17.1-74.8 59.7-74.8 109.6v82.7l235.2-3V422c0-49.9-31.1-92.6-75.1-109.7z" fill="#00ffc4"/><path class="st1" d="M106.6 442.5h15.2v16.9h-15.2z"/><path class="st1" d="M434 324c23.2-12.8 38.9-37.5 38.9-65.8 0-31.7-19.8-58.9-47.6-69.8.5-4.9.8-9.7.8-14.6 0-2.1 0-4.3-.1-6.4l-15.2.4c.1 2 .1 4 .1 6 0 2.7 0 5.5-.1 8.3l-.2 2.2c-4.1-.7-8.4-1.1-12.7-1.1-24.2 0-45.8 11.5-59.5 29.4-6.5-36.7-37-65.2-74.7-68.6v-7.4h-15.2v7.4c-37.7 3.4-68.2 31.9-74.7 68.6-13.7-17.8-35.3-29.4-59.5-29.4-3 0-5.9.2-8.8.5-.1-1.7-.1-3.3-.1-3.6 0-4 .1-8.1.4-12.1l-15.2-1c-.4 6.7-.1 13.3.1 20-29.8 9.9-51.4 38.1-51.4 71.2 0 28.3 15.7 53 38.9 65.8C32.7 339.1 0 382 0 432.3v79.6h512v-79.6c0-50.3-32.7-93.2-78-108.3zm-36.2-5.9c-29.1 0-53.5-20.9-58.8-48.5 17.3-6 29.6-14.1 38-21.6 11 7.8 36.7 22 79.1 23.8-6.1 26.5-29.9 46.3-58.3 46.3zm25.9 18.6l-25.9 29.7-25.9-29.7c8.3-2.2 17-3.5 25.9-3.5s17.7 1.3 25.9 3.5zm-25.9-138.4c32.5 0 59 26 59.8 58.3-36.9-1.4-59.7-13.1-70-19.9 3.7-4.8 5.4-8.1 5.6-8.5l-13.7-6.6c-.1.2-10.1 20-41.5 32.2 2.4-31 28.3-55.5 59.8-55.5zM361.6 324c-5.9 2-11.6 4.4-17.1 7.3-14.1-13.5-31.2-23.9-50.2-29.9 12.1-6.3 22.5-15.4 30.3-26.6 4.8 21.2 18.5 39 37 49.2zM256 295.5c-33.6 0-61.5-24.3-67.3-56.2 20.1-6.8 34.3-16.3 43.9-24.9 12 8.7 41.3 25.3 90.3 27.2-6.7 30.7-34.1 53.9-66.9 53.9zm30.9 19.5L256 350.5 225.1 315c9.8-2.8 20.2-4.3 30.9-4.3s21.1 1.5 30.9 4.3zM256 158.7c37.5 0 68 30.3 68.4 67.6-43.4-1.4-69.9-15.5-81.2-23.2 4.6-5.7 6.6-9.8 6.8-10.3l-13.7-6.7c-.5 1-12.2 23.7-48.7 37.3 2-35.9 31.9-64.7 68.4-64.7zm-38.3 142.7c-19.1 6-36.2 16.4-50.2 29.9-5.5-2.9-11.2-5.3-17.1-7.3 18.5-10.2 32.2-28 37-49.2 7.8 11.1 18.2 20.3 30.3 26.6zM114.2 198.3c32.5 0 59 26 59.8 58.3-36.9-1.4-59.7-13.1-70-19.9 3.7-4.8 5.4-8.1 5.6-8.5L96 221.5c-.5.9-10.5 20.3-41.5 32.2 2.3-30.9 28.2-55.4 59.7-55.4zm-58.8 71.3c17.3-6 29.6-14.1 38-21.6 11 7.8 36.7 22 79.1 23.8-6.2 26.5-30 46.3-58.3 46.3-29.1 0-53.5-20.9-58.8-48.5zm84.7 67.1l-25.9 29.7-25.9-29.7c8.3-2.2 17-3.5 25.9-3.5s17.7 1.3 25.9 3.5zm-11.8 86.5v73.5H62.4v-61.1H47.2v61.1h-32v-64.4c0-39.9 23.7-74.3 57.8-90l33.6 38.6v47.3h15.2v-47.3l33.6-38.6c.5.2.9.4 1.4.6-17.8 22-28.5 49.9-28.5 80.3zm240.2 73.5h-38V427h-15.2v69.7H196.7V427h-15.2v69.7h-38v-73.5c0-45.6 27.2-84.9 66.3-102.5l38.6 44.2v53.6h15.2v-53.6l38.6-44.2c39 17.7 66.3 57 66.3 102.5v73.5zm128.3 0h-32.1v-61.1h-15.2v61.1h-65.9v-73.5c0-30.4-10.7-58.3-28.5-80.3.5-.2.9-.4 1.4-.6l33.6 38.6v47.3h15.2v-47.3l33.6-38.6c34.1 15.7 57.8 50.1 57.8 90v64.4z"/><path class="st1" d="M390.2 442.5h15.2v16.9h-15.2zm-141.8-7.8h15.2v19h-15.2zM432.3 26.8h15.2v16.9h-15.2zm42.6 78.4h15.2v16.9h-15.2zM69.1 35.3h15.2v16.9H69.1zm-56.3 82.1H28v16.9H12.8zm82 18.4c-1.1 5.1-2.1 10.3-2.8 15.5l15 2.1c.7-4.8 1.5-9.7 2.6-14.4l-14.8-3.2zm9.3-30.2c-2 4.8-3.7 9.9-5.3 14.9l14.5 4.5c1.4-4.7 3.1-9.3 4.9-13.7l-14.1-5.7zm58.1-74.1c-4.3 3.1-8.5 6.4-12.5 9.8l10 11.5c3.6-3.1 7.4-6.2 11.4-9l-8.9-12.3zm-24 20.8c-3.6 3.8-7.1 7.9-10.4 12l12 9.4c3-3.8 6.1-7.5 9.4-10.9l-11-10.5zm-19.6 25c-2.8 4.4-5.5 9.1-7.9 13.8l13.5 6.9c2.2-4.3 4.6-8.6 7.2-12.6l-12.8-8.1zm71.1-61.8c-4.8 2.2-9.5 4.7-14.1 7.3l7.6 13.1c4.2-2.4 8.5-4.7 12.8-6.7l-6.3-13.7zm30-10.5c-5.1 1.3-10.2 2.8-15.2 4.6l5 14.3c4.5-1.6 9.2-3 13.9-4.1L219.7 5zm194.5 99.8l-14.1 5.6c1.7 4.4 3.3 9 4.6 13.6l14.6-4.1c-1.5-5.2-3.2-10.2-5.1-15.1zm-14.9-28.1l-12.8 8.2c2.6 4.1 5 8.3 7.2 12.5l13.5-6.9c-2.4-4.7-5.1-9.4-7.9-13.8zM295.4 4.1l-3.6 14.8c4.7 1.1 9.3 2.5 13.9 4.1l5-14.4c-5-1.7-10.1-3.2-15.3-4.5zM422.8 136l-14.9 2.7c.8 4.7 1.5 9.5 2 14.4l15.1-1.5c-.5-5.3-1.3-10.6-2.2-15.6zM326 14l-6.3 13.8c4.4 2 8.7 4.2 12.9 6.6l7.6-13.2c-4.6-2.5-9.4-5-14.2-7.2zm38.8 23.7c-3.4-2.9-7-5.6-10.6-8.2l-8.8 12.4c3.3 2.3 6.5 4.9 9.6 7.5.6.5 1.2 1 1.7 1.5l10-11.5c-.6-.6-1.2-1.2-1.9-1.7zm14 13.5l-11 10.5c3.3 3.5 6.5 7.2 9.5 11l12-9.4c-3.3-4.2-6.8-8.3-10.5-12.1zM248.4 46h15.2v15.1h-15.2zm0 30.1h15.2v15.1h-15.2zm0 30.2h15.2v15.1h-15.2zM234.1 2.2l2.2 15 2.1-.3c1.9-.2 6.2-.8 10-1.1v15.1h15.2V15.4c.9 0 1.8 0 2.7.1 4.1.2 5.9.4 10.1.9h.2l2.4-15c-19.6-2.5-34.7-1.1-44.9.8z"/></svg>